<svg viewBox="0 0 800 800" xmlns="http://www.w3.org/2000/svg"><path d="M8.903727165791395,541.3137952827528 L45.74512221529642,506.15687271638257 M45.74512221529642,506.15687271638257 L79.21008376997526,475.42504616026713 M79.21008376997526,475.42504616026713 L109.55059130162442,448.55326571063864 M109.55059130162442,448.55326571063864 L140.07750271286585,422.4710498155119 M140.07750271286585,422.4710498155119 L170.76779143317935,397.2207649199335 M170.76779143317935,397.2207649199335 L201.5983493465739,372.8447023871365 M201.5983493465739,372.8447023871365 L232.5461691126353,349.3849610425138 M232.5461691126353,349.3849610425138 L263.5881954678347,326.8835276911748 M263.5881954678347,326.8835276911748 L294.70143461622297,305.38220927049736 M294.70143461622297,305.38220927049736 L325.86290078075996,284.92264336192255 M325.86290078075996,284.92264336192255 L353.9302427983833,267.43293812380205 M353.9302427983833,267.43293812380205 L379.1917169434965,252.4544743484375 M379.1917169434965,252.4544743484375 L404.43742608647716,238.202741723385 M404.43742608647716,238.202741723385 L429.6514127904799,224.6819359117955 M429.6514127904799,224.6819359117955 L454.8177784643952,211.89621644547083 M454.8177784643952,211.89621644547083 L479.9206748819841,199.8496533754629 M479.9206748819841,199.8496533754629 L504.9443283087649,188.54624655246857 M504.9443283087649,188.54624655246857 L529.873020840098,177.98995417709057 M529.873020840098,177.98995417709057 L554.6910979520196,168.18467582953716 M554.6910979520196,168.18467582953716 L579.3829432769537,159.13425434936022 M579.3829432769537,159.13425434936022 L603.9330838865656,150.84243305218496 M603.9330838865656,150.84243305218496 L628.326020961694,143.31297072268433 M628.326020961694,143.31297072268433 L644.3192398408671,138.76637995941923 M644.3192398408671,138.76637995941923 L660.2330212792158,134.5539815423981" stroke="black"  stroke-width="4"  fill="red"/>
<path d="M57.31735928840499,589.4384035709681 L95.0752447612607,574.9327524724683 M95.0752447612607,574.9327524724683 L132.51986398778917,559.332366951247 M132.51986398778917,559.332366951247 L169.60095172665427,542.7975666387988 M169.60095172665427,542.7975666387988 L206.2678369125593,525.488809757114 M206.2678369125593,525.488809757114 L242.46951246494376,507.5666886920513 M242.46951246494376,507.5666886920513 L278.1547405004738,489.1918676356888 M278.1547405004738,489.1918676356888 L309.78727546041114,472.4003603215882 M309.78727546041114,472.4003603215882 L337.8319918987144,457.1827513525299 M337.8319918987144,457.1827513525299 L365.44583489124096,441.95409357190874 M365.44583489124096,441.95409357190874 L389.90701140518627,428.30953174258815 M389.90701140518627,428.30953174258815 L411.5877451525457,416.1325334958 M411.5877451525457,416.1325334958 L432.93641381886425,404.1003055874387 M432.93641381886425,404.1003055874387 L451.8540425395866,393.4326307171816 M451.8540425395866,393.4326307171816 L468.6307449024942,383.99079244631577 M468.6307449024942,383.99079244631577 L485.16473809631344,374.72055703085886 M485.16473809631344,374.72055703085886 L501.45628381202783,365.62442763094873 M501.45628381202783,365.62442763094873 L517.5074087779294,356.7002612474209 M517.5074087779294,356.7002612474209 L533.3201896448127,347.9459313540332 M533.3201896448127,347.9459313540332 L548.8967474914532,339.35925512927787 M548.8967474914532,339.35925512927787 L564.2392038283099,330.9379886847399 M564.2392038283099,330.9379886847399 L579.349758581139,322.6799344648242 M579.349758581139,322.6799344648242 L594.2306324086956,314.58285294246053 M594.2306324086956,314.58285294246053 L608.8840530181847,306.64447078298724 M608.8840530181847,306.64447078298724 L623.312318974117,298.8625201933896 M623.312318974117,298.8625201933896 L637.5177469885086,291.2347087326621 M637.5177469885086,291.2347087326621 L651.5026433138405,283.75870558654447 M651.5026433138405,283.75870558654447 L669.810280639882,274.02284986985103 M669.810280639882,274.02284986985103 L689.9499376248771,263.38075862502524 M689.9499376248771,263.38075862502524 L709.6141891246525,253.0600363595294 M709.6141891246525,253.0600363595294 L728.8114478305129,243.0526258985683 M728.8114478305129,243.0526258985683 L750.059505016091,232.05623209555802 M750.059505016091,232.05623209555802 L770.7286082364171,221.44166122983123" stroke="black"  stroke-width="4"  fill="red"/>
<path d="M78.2806840421336,665.4460184576019 L97.76023692337094,660.2712464399112 M97.76023692337094,660.2712464399112 L117.06122623081478,654.8033938266681 M117.06122623081478,654.8033938266681 L136.1817999198479,649.0558368091351 M136.1817999198479,649.0558368091351 L155.12009109969128,643.0420071118765 M155.12009109969128,643.0420071118765 L173.87422503285615,636.7753238245834 M173.87422503285615,636.7753238245834 L192.442411746632,630.2691942409681 M192.442411746632,630.2691942409681 L210.82279379158268,623.5370435833222 M210.82279379158268,623.5370435833222 L229.01355209053474,616.5923139870529 M229.01355209053474,616.5923139870529 L247.01290611902544,609.4483983734556 M247.01290611902544,609.4483983734556 L264.8190607460679,602.1187372157042 M264.8190607460679,602.1187372157042 L282.4302593175275,594.6167619495104 M282.4302593175275,594.6167619495104 L299.8447043084746,586.9558750290325 M299.8447043084746,586.9558750290325 L317.0606762116235,579.1495025341135 M317.0606762116235,579.1495025341135 L334.076401454059,571.211047318737 M334.076401454059,571.211047318737 L350.8901844688505,563.1539417369299 M350.8901844688505,563.1539417369299 L367.50028881390244,554.991566407964 M367.50028881390244,554.991566407964 L383.9050097908539,546.7373144060873 M383.9050097908539,546.7373144060873 L400.1026546433428,538.4045941738607 M400.1026546433428,538.4045941738607 L416.09155569973797,530.006767651148 M416.09155569973797,530.006767651148 L431.87003407565203,521.5572162135536 M431.87003407565203,521.5572162135536 L447.4364458600671,513.0693017666972 M447.4364458600671,513.0693017666972 L462.7891226014635,504.5563583007678 M462.7891226014635,504.5563583007678 L477.9264514579509,496.03174026970623 M477.9264514579509,496.03174026970623 L492.84682121927875,487.5087385872385 M492.84682121927875,487.5087385872385 L507.55195500408837,478.99675434039403 M507.55195500408837,478.99675434039403 L526.8387490750706,467.6670734135576 M526.8387490750706,467.6670734135576 L548.1243159814701,454.94948722973817 M548.1243159814701,454.94948722973817 L569.0037718845481,442.26366902442163 M569.0037718845481,442.26366902442163 L589.5085293990317,429.6114074577741 M589.5085293990317,429.6114074577741 L616.3196902605162,412.7969240277828 M616.3196902605162,412.7969240277828 L645.8458755482288,393.96058579489636 M645.8458755482288,393.96058579489636 L680.4627713393265,371.52173105273187 M680.4627713393265,371.52173105273187 L719.4522179061807,345.9176578378603 M719.4522179061807,345.9176578378603 L791.0962728342085,298.5541392260533" stroke="black"  stroke-width="4"  fill="red"/></svg>