<svg viewBox="0 0 800 800" xmlns="http://www.w3.org/2000/svg"><path d="M9.251523727265578,541.3132032368646 L46.09276442668465,506.156427963343 M46.09276442668465,506.156427963343 L79.55758577712606,475.42473016076855 M79.55758577712606,475.42473016076855 L109.89796619469774,448.55306229269723 M109.89796619469774,448.55306229269723 L140.424749710907,422.47095567118146 M140.424749710907,422.47095567118146 L171.11490985170562,397.2207765637699 M171.11490985170562,397.2207765637699 L201.94533859791596,372.8448161565125 M201.94533859791596,372.8448161565125 L232.89302870551472,349.3851730984255 M232.89302870551472,349.3851730984255 L263.9349250075651,326.88383401871135 M263.9349250075651,326.88383401871135 L295.0480338044525,305.38260567959423 M295.0480338044525,305.38260567959423 L326.2093694154376,284.923125488071 M326.2093694154376,284.923125488071 L354.27659384259925,267.4334935245239 M354.27659384259925,267.4334935245239 L379.53796215266726,252.45509250267799 M379.53796215266726,252.45509250267799 L404.7835655266516,238.20341958644363 M404.7835655266516,238.20341958644363 L429.9974465945619,224.6826704213937 M429.9974465945619,224.6826704213937 L455.1637068318969,211.89700452190317 M455.1637068318969,211.89700452190317 L480.2664980788153,199.85049192197226 M480.2664980788153,199.85049192197226 L505.2900466669206,188.54713245554 M505.2900466669206,188.54713245554 L530.2186347574246,177.99088430662624 M530.2186347574246,177.99088430662624 L555.03660789195,168.18564703910127 M555.03660789195,168.18564703910127 L579.7283497683461,159.1352634764172 M579.7283497683461,159.1352634764172 L604.2783875231038,150.84347691851627 M604.2783875231038,150.84347691851627 L628.6712224019956,143.3140461343237 M628.6712224019956,143.3140461343237 L644.6643742762492,138.7674744193784 M644.6643742762492,138.7674744193784 L660.5780890424882,134.55509365055048" stroke="black"  stroke-width="4"  fill="red"/>
<path d="M78.6281899430819,665.4449063494494 L98.08226567630936,660.2810066912464 M98.08226567630936,660.2810066912464 L117.35697538938587,654.8242862410762 M117.35697538938587,654.8242862410762 L136.45063948302266,649.0881228543733 M136.45063948302266,649.0881228543733 L155.36146438897143,643.0859556192845 M155.36146438897143,643.0859556192845 L174.087781246301,636.8311667999735 M174.087781246301,636.8311667999735 L192.62788008537996,630.3371710182125 M192.62788008537996,630.3371710182125 L210.98004304575073,623.6174103126987 M210.98004304575073,623.6174103126987 L229.1426106686846,616.6852880229169 M229.1426106686846,616.6852880229169 L247.1139156134705,609.5542118965295 M247.1139156134705,609.5542118965295 L264.8922760230186,602.2376294550195 M264.8922760230186,602.2376294550195 L282.47608158188956,594.7489332890848 M282.47608158188956,594.7489332890848 L299.86366778777716,587.1015558213717 M299.86366778777716,587.1015558213717 L317.05344821445567,579.3088879747136 M317.05344821445567,579.3088879747136 L334.04379547714444,571.3843625005911 M334.04379547714444,571.3843625005911 L350.833094147972,563.3413650357445 M350.833094147972,563.3413650357445 L367.4197935089883,555.1933021563857 M367.4197935089883,555.1933021563857 L383.80228869122493,546.9535660604098 M383.80228869122493,546.9535660604098 L399.9790526821629,538.6355299373608 M399.9790526821629,538.6355299373608 L415.94851086283296,530.2525738378145 M415.94851086283296,530.2525738378145 L431.70912680891126,521.8180572073934 M431.70912680891126,521.8180572073934 L447.25938576009474,513.345342856164 M447.25938576009474,513.345342856164 L462.59775988288027,504.84776662010796 M462.59775988288027,504.84776662010796 L477.7227734656981,496.33868283557194 M477.7227734656981,496.33868283557194 L492.6329127061599,487.8313670578559 M492.6329127061599,487.8313670578559 L507.32955170783873,479.33546925499894 M507.32955170783873,479.33546925499894 L526.6064223375937,468.0275861109855 M526.6064223375937,468.0275861109855 L547.8809534041538,455.3342200255594 M547.8809534041538,455.3342200255594 L568.7472822439973,442.6713018410547 M568.7472822439973,442.6713018410547 L589.2345191828491,430.0396143702922 M589.2345191828491,430.0396143702922 L616.011564103646,413.2472395305023 M616.011564103646,413.2472395305023 L645.4784411365887,394.4257549259519 M645.4784411365887,394.4257549259519 L680.4631636770814,371.672420208971 M680.4631636770814,371.672420208971 L719.2678753719291,346.0233072056576 M719.2678753719291,346.0233072056576 L790.7484762727345,298.1594772801176" stroke="black"  stroke-width="4"  fill="red"/>
<path d="M57.68053294994627,593.4363846657586 L98.07899809834481,576.639426295415 M98.07899809834481,576.639426295415 L138.16807210661943,558.8282434214914 M138.16807210661943,558.8282434214914 L177.87853707103437,540.1756639889986 M177.87853707103437,540.1756639889986 L217.14081387596514,520.8546836306786 M217.14081387596514,520.8546836306786 L252.03590099557704,503.037406921426 M252.03590099557704,503.037406921426 L283.0403788456045,486.7632674946698 M283.0403788456045,486.7632674946698 L313.6260426875044,470.35861746032305 M313.6260426875044,470.35861746032305 L340.7640138791917,455.5590328413671 M340.7640138791917,455.5590328413671 L364.849471017579,442.26838847226344 M364.849471017579,442.26838847226344 L388.5932368815308,429.0560191445644 M388.5932368815308,429.0560191445644 L411.9752704544465,415.9708927527975 M411.9752704544465,415.9708927527975 L432.6931786769617,404.3435584222427 M432.6931786769617,404.3435584222427 L451.0627449928444,394.0304863929783 M451.0627449928444,394.0304863929783 L469.159222867127,383.88792666080275 M469.159222867127,383.88792666080275 L486.973906507694,373.937292566426 M486.973906507694,373.937292566426 L504.5064228854736,364.1811615189292 M504.5064228854736,364.1811615189292 L521.7585184276585,354.61727587867847 M521.7585184276585,354.61727587867847 L538.7320288721955,345.2433417876257 M538.7320288721955,345.2433417876257 L555.4288133574921,336.05702181763 M555.4288133574921,336.05702181763 L571.8507954250324,327.05597245679826 M571.8507954250324,327.05597245679826 L587.9999351626342,318.23782998977134 M587.9999351626342,318.23782998977134 L603.878230823802,309.60017938812524 M603.878230823802,309.60017938812524 L619.4877567711659,301.140608683675 M619.4877567711659,301.140608683675 L634.8305896172596,292.85666058458656 M634.8305896172596,292.85666058458656 L649.9088720736636,284.74587182263116 M649.9088720736636,284.74587182263116 L664.7247590325641,276.80574368947777 M664.7247590325641,276.80574368947777 L679.280468681446,269.0337886558067 M679.280468681446,269.0337886558067 L698.2872602030559,258.9284060508208 M698.2872602030559,258.9284060508208 L719.1285381828972,247.90428886741614 M719.1285381828972,247.90428886741614 L739.4041953351963,237.23657201406832 M739.4041953351963,237.23657201406832 L755.0653036417037,229.03542192139577 M755.0653036417037,229.03542192139577 L770.3807236532624,221.04794964143932" stroke="black"  stroke-width="4"  fill="red"/></svg>