<svg viewBox="0 0 800 800" xmlns="http://www.w3.org/2000/svg"><path d="M674.0525488917469,248.11470926512132 L674.2074056985782,216.00051395208058 M48.86594303130346,609.096388712519 L48.673476301654944,576.7819859746855 M674.0525488917469,248.11470926512132 L48.86594303130346,609.096388712519 M674.2074056985782,216.00051395208058 L48.673476301654944,576.7819859746855 M676.1432532015183,249.3084730993336 L674.0525488917469,248.11470926512132 M676.2992700042502,217.1936074958886 L674.2074056985782,216.00051395208058 M676.2758565088653,222.0130964510892 L676.2992700042502,217.1936074958886 M678.3677198456629,223.2063894302788 L676.2758565088653,222.0130964510892 M678.2576959568783,245.68726368442609 L678.3677198456629,223.2063894302788 M678.2576959568783,245.68726368442609 L676.16664475119,244.4935015013519 M676.1432532015183,249.3084730993336 L676.16664475119,244.4935015013519 M48.86594303130346,609.096388712519 L50.956615392164736,610.3202002509356 M50.956615392164736,610.3202002509356 L50.927932994461685,605.4752400418738 M50.927932994461685,605.4752400418738 L53.018954404187696,606.6990536863905 M53.018954404187696,606.6990536863905 L52.885851753411146,584.078034277683 M50.79401824811055,582.8546898286888 L52.885851753411146,584.078034277683 M50.79401824811055,582.8546898286888 L50.76530860405438,578.0051272325541 M48.673476301654944,576.7819859746855 L50.76530860405438,578.0051272325541 M676.1432532015183,249.3084730993336 L50.956615392164736,610.3202002509356 M50.76530860405438,578.0051272325541 L676.2992700042502,217.1936074958886 M676.2758565088653,222.0130964510892 L633.6370497576291,246.6115004760858 M96.23569662848172,556.6393041380018 L50.79401824811055,582.8546898286888 M96.23569662848172,556.6393041380018 L87.34308412131782,580.389650934437 M87.34308412131782,580.389650934437 L91.05774215883935,580.600764353786 M101.07537544707901,553.847284754682 L91.05774215883935,580.600764353786 M231.09473501446064,478.8388832210947 L101.07537544707901,553.847284754682 M231.09473501446064,478.8388832210947 L231.1579466915301,501.41939311782147 M231.1579466915301,501.41939311782147 L50.927932994461685,605.4752400418738 M676.16664475119,244.4935015013519 L503.2730878958838,344.3136430929148 M503.3156738175379,321.794135796313 L503.2730878958838,344.3136430929148 M629.4289801704565,249.03914336193122 L503.3156738175379,321.794135796313 M629.4289801704565,249.03914336193122 L632.6745734828588,269.11689341345283 M632.6745734828588,269.11689341345283 L636.7571824101974,265.925319265513 M633.6370497576291,246.6115004760858 L636.7571824101974,265.925319265513 M365.4903170558656,423.8625629270918 L235.3666937948442,498.98947184477197 M235.30512718204653,476.4099004344468 L235.3666937948442,498.98947184477197 M365.4794764859438,401.3120850441167 L235.30512718204653,476.4099004344468 M365.4794764859438,401.3120850441167 L365.4903170558656,423.8625629270918 M499.10894447383316,346.71781241857985 L369.6766732141138,421.44556907220357 M369.66746026382964,398.89602969764337 L369.6766732141138,421.44556907220357 M499.14992001261425,324.1973666315476 L369.66746026382964,398.89602969764337 M499.14992001261425,324.1973666315476 L499.10894447383316,346.71781241857985 M635.7289316345996,247.80683017999698 L678.3677198456629,223.2063894302788 M635.7289316345996,247.80683017999698 L633.6370497576291,246.6115004760858 M505.3641955821096,345.5156778594625 L678.2576959568783,245.68726368442609 M635.7289316345996,247.80683017999698 L638.8482986748178,267.1209372443361 M634.7656611741945,270.3127238330269 L638.8482986748178,267.1209372443361 M631.5208637139764,250.23467416654879 L634.7656611741945,270.3127238330269 M505.407593700436,322.99570131779274 L631.5208637139764,250.23467416654879 M505.407593700436,322.99570131779274 L505.3641955821096,345.5156778594625 M505.3641955821096,345.5156778594625 L503.2730878958838,344.3136430929148 M233.2490430620991,502.63450586738406 L231.1579466915301,501.41939311782147 M53.018954404187696,606.6990536863905 L233.2490430620991,502.63450586738406 M233.18664356844045,480.0535267279572 L233.2490430620991,502.63450586738406 M103.1672352937631,555.0681996061305 L233.18664356844045,480.0535267279572 M103.1672352937631,555.0681996061305 L93.14884598768015,581.8226022926005 M89.43427043744862,581.611619080815 L93.14884598768015,581.8226022926005 M98.32755412182212,557.8604527379157 L89.43427043744862,581.611619080815 M52.885851753411146,584.078034277683 L98.32755412182212,557.8604527379157 M98.32755412182212,557.8604527379157 L96.23569662848172,556.6393041380018 M638.8482986748178,267.1209372443361 L636.7571824101974,265.925319265513 M634.7656611741945,270.3127238330269 L632.6745734828588,269.11689341345283 M631.5208637139764,250.23467416654879 L629.4289801704565,249.03914336193122 M505.407593700436,322.99570131779274 L503.3156738175379,321.794135796313 M367.58143432919064,425.0712107552719 L365.4903170558656,423.8625629270918 M237.4577912735226,500.2043817811825 L367.58143432919064,425.0712107552719 M237.4577912735226,500.2043817811825 L235.3666937948442,498.98947184477197 M367.5714059670988,402.5202636181162 L367.58143432919064,425.0712107552719 M367.5714059670988,402.5202636181162 L365.4794764859438,401.3120850441167 M237.39703684543147,477.62434112749133 L235.30512718204653,476.4099004344468 M237.39703684543147,477.62434112749133 L367.5714059670988,402.5202636181162 M371.76779065897495,422.6540157035892 L369.6766732141138,421.44556907220357 M501.20005291025416,347.92004678269467 L499.10894447383316,346.71781241857985 M371.76779065897495,422.6540157035892 L501.20005291025416,347.92004678269467 M501.24184064658,325.39913175001016 L501.20005291025416,347.92004678269467 M501.24184064658,325.39913175001016 L499.14992001261425,324.1973666315476 M371.75938991672086,400.10400707481426 L371.76779065897495,422.6540157035892 M371.75938991672086,400.10400707481426 L369.66746026382964,398.89602969764337 M371.75938991672086,400.10400707481426 L501.24184064658,325.39913175001016 M233.18664356844045,480.0535267279572 L231.09473501446064,478.8388832210947 M103.1672352937631,555.0681996061305 L101.07537544707901,553.847284754682 M93.14884598768015,581.8226022926005 L91.05774215883935,580.600764353786 M89.43427043744862,581.611619080815 L87.34308412131782,580.389650934437 M237.39703684543147,477.62434112749133 L237.4577912735226,500.2043817811825" stroke="black"  stroke-width="4"  fill="red"/>
<path d="M729.8917768143567,275.1646925095938 L556.9998609216125,375.19748972441147 M556.9998609216125,375.19748972441147 L557.0633359397526,352.6659383897877 M683.1755700641214,279.7558168880808 L557.0633359397526,352.6659383897877 M686.4006911783558,299.8412509485714 L683.1755700641214,279.7558168880808 M690.4840305476071,296.64421647147253 L686.4006911783558,299.8412509485714 M690.4840305476071,296.64421647147253 L687.383592209362,277.3230044966296 M730.0218757626085,252.67224435367902 L687.383592209362,277.3230044966296 M729.8917768143567,275.1646925095938 L730.0218757626085,252.67224435367902 M559.0954312745454,376.40208977278024 L731.9872751592211,276.3609935241213 M559.0954312745454,376.40208977278024 L556.9998609216125,375.19748972441147 M731.9872751592211,276.3609935241213 L729.8917768143567,275.1646925095938 M559.0954312745454,376.40208977278024 L559.1597219556334,353.8700691870459 M559.1597219556334,353.8700691870459 L557.0633359397526,352.6659383897877 M685.271908415885,280.9538936568371 L683.1755700641214,279.7558168880808 M559.1597219556334,353.8700691870459 L685.271908415885,280.9538936568371 M688.4962299997728,301.0396268361211 L685.271908415885,280.9538936568371 M688.4962299997728,301.0396268361211 L686.4006911783558,299.8412509485714 M692.5795977037099,297.84237929486886 L690.4840305476071,296.64421647147253 M692.5795977037099,297.84237929486886 L688.4962299997728,301.0396268361211 M692.5795977037099,297.84237929486886 L689.4799285157411,278.52087952197826 M689.4799285157411,278.52087952197826 L687.383592209362,277.3230044966296 M689.4799285157411,278.52087952197826 L732.1181896867396,253.86807614815592 M732.1181896867396,253.86807614815592 L730.0218757626085,252.67224435367902 M734.0547323942824,282.37514308367736 L731.9592352104765,281.17864258332946 M731.9592352104765,281.17864258332946 L731.9872751592211,276.3609935241213 M732.1181896867396,253.86807614815592 L732.146255971346,249.045902225432 M734.2429184608325,250.24173241048175 L732.146255971346,249.045902225432 M734.0547323942824,282.37514308367736 L734.2429184608325,250.24173241048175 M106.77254414160313,642.9930278588281 L731.9592352104765,281.17864258332946 M106.77254414160313,642.9930278588281 L106.74851012522663,638.145390438073 M106.74851012522663,638.145390438073 L286.9803109957338,533.8571456439315 M286.9803109957338,533.8571456439315 L286.93880410086484,511.2641227391105 M156.91829872856394,586.4400296705255 L286.93880410086484,511.2641227391105 M146.8804736165805,613.21814575906 L156.91829872856394,586.4400296705255 M146.8804736165805,613.21814575906 L143.16802443675124,613.0105122669324 M143.16802443675124,613.0105122669324 L152.07856283569237,589.2382924061867 M106.63629806580514,615.5123286231044 L152.07856283569237,589.2382924061867 M106.63629806580514,615.5123286231044 L106.61224119318246,610.6600811200242 M106.61224119318246,610.6600811200242 L732.146255971346,249.045902225432 M291.1492208827055,508.8297228786594 L421.3239445893704,433.5646492183653 M291.1890826845388,531.4218073182601 L291.1492208827055,508.8297228786594 M291.1890826845388,531.4218073182601 L421.3130799112185,456.1276405240315 M421.3130799112185,456.1276405240315 L421.3239445893704,433.5646492183653 M425.5119279767704,431.1432200102569 L554.9939931491082,356.27863113013433 M425.49943567943706,453.7052728117706 L425.5119279767704,431.1432200102569 M425.49943567943706,453.7052728117706 L554.9313128218336,378.81159021859895 M554.9313128218336,378.81159021859895 L554.9939931491082,356.27863113013433 M108.86806935145171,644.2196800970578 L734.0547323942824,282.37514308367736 M106.77254414160313,642.9930278588281 L108.86806935145171,644.2196800970578 M106.61224119318246,610.6600811200242 L108.70893175434958,611.8860631107441 M108.70893175434958,611.8860631107441 L734.2429184608325,250.24173241048175 M108.86806935145171,644.2196800970578 L108.70893175434958,611.8860631107441 M291.1492208827055,508.8297228786594 L289.0528212055832,507.6126755456196 M419.2275366617281,432.3538841503471 L289.0528212055832,507.6126755456196 M421.3239445893704,433.5646492183653 L419.2275366617281,432.3538841503471 M419.21748767203377,454.9164062040097 L419.2275366617281,432.3538841503471 M421.3130799112185,456.1276405240315 L419.21748767203377,454.9164062040097 M419.21748767203377,454.9164062040097 L289.0934986862328,530.204290751919 M291.1890826845388,531.4218073182601 L289.0934986862328,530.204290751919 M284.8847277328455,532.6394256113476 L104.65298592302327,636.9189414408784 M286.9803109957338,533.8571456439315 L284.8847277328455,532.6394256113476 M104.65298592302327,636.9189414408784 L106.74851012522663,638.145390438073 M104.53995825492979,614.2863487999771 L106.63629806580514,615.5123286231044 M104.65298592302327,636.9189414408784 L104.53995825492979,614.2863487999771 M425.5119279767704,431.1432200102569 L423.4155202505341,429.9326567854756 M552.897606009034,355.07430009633293 L423.4155202505341,429.9326567854756 M554.9939931491082,356.27863113013433 L552.897606009034,355.07430009633293 M423.4038436414234,452.49424033469984 L423.4155202505341,429.9326567854756 M425.49943567943706,453.7052728117706 L423.4038436414234,452.49424033469984 M552.8357413460145,377.6067899333491 L552.897606009034,355.07430009633293 M554.9313128218336,378.81159021859895 L552.8357413460145,377.6067899333491 M552.8357413460145,377.6067899333491 L423.4038436414234,452.49424033469984 M289.0934986862328,530.204290751919 L289.0528212055832,507.6126755456196 M286.93880410086484,511.2641227391105 L284.84240516002114,510.04687193890476 M284.8847277328455,532.6394256113476 L284.84240516002114,510.04687193890476 M149.98220303780278,588.014515528336 L104.53995825492979,614.2863487999771 M141.07233790494683,611.7859144552001 L149.98220303780278,588.014515528336 M144.78487026243425,611.9936787347599 L141.07233790494683,611.7859144552001 M144.78487026243425,611.9936787347599 L154.8219370038905,585.216487296155 M284.84240516002114,510.04687193890476 L154.8219370038905,585.216487296155 M152.07856283569237,589.2382924061867 L149.98220303780278,588.014515528336 M143.16802443675124,613.0105122669324 L141.07233790494683,611.7859144552001 M146.8804736165805,613.21814575906 L144.78487026243425,611.9936787347599 M156.91829872856394,586.4400296705255 L154.8219370038905,585.216487296155" stroke="black"  stroke-width="4"  fill="red"/>
<path d="M676.2758565088653,222.0130964510892 L633.6370497576291,246.6115004760858 M632.9262032884777,242.2114371950592 L633.6370497576291,246.6115004760858 M676.2992700042502,217.1936074958886 L632.9262032884777,242.2114371950592 M676.2758565088653,222.0130964510892 L676.2992700042502,217.1936074958886 M732.1181896867396,253.86807614815592 L676.2758565088653,222.0130964510892 M689.4799285157411,278.52087952197826 L732.1181896867396,253.86807614815592 M689.4799285157411,278.52087952197826 L633.6370497576291,246.6115004760858 M689.4799285157411,278.52087952197826 L688.7737436226844,274.11906382659447 M688.7737436226844,274.11906382659447 L632.9262032884777,242.2114371950592 M732.146255971346,249.045902225432 L676.2992700042502,217.1936074958886 M688.7737436226844,274.11906382659447 L732.146255971346,249.045902225432 M732.1181896867396,253.86807614815592 L732.146255971346,249.045902225432" stroke="black"  stroke-width="4"  fill="red"/>
<path d="M629.4289801704565,249.03914336193122 L503.3156738175379,321.794135796313 M503.32480366691334,316.9662560266126 L503.3156738175379,321.794135796313 M628.717663817526,244.63894651683424 L503.32480366691334,316.9662560266126 M628.717663817526,244.63894651683424 L629.4289801704565,249.03914336193122 M559.1597219556334,353.8700691870459 L503.3156738175379,321.794135796313 M685.271908415885,280.9538936568371 L629.4289801704565,249.03914336193122 M559.1597219556334,353.8700691870459 L685.271908415885,280.9538936568371 M559.1597219556334,353.8700691870459 L559.1735050209721,349.03950421722857 M559.1735050209721,349.03950421722857 L503.32480366691334,316.9662560266126 M684.5652535168506,276.5519446261252 L628.717663817526,244.63894651683424 M559.1735050209721,349.03950421722857 L684.5652535168506,276.5519446261252 M685.271908415885,280.9538936568371 L684.5652535168506,276.5519446261252" stroke="black"  stroke-width="4"  fill="red"/>
<path d="M499.14992001261425,324.1973666315476 L369.66746026382964,398.89602969764337 M369.6654851286073,394.061705394101 L369.66746026382964,398.89602969764337 M499.15870461788364,319.3692854734698 L369.6654851286073,394.061705394101 M499.15870461788364,319.3692854734698 L499.14992001261425,324.1973666315476 M425.5119279767704,431.1432200102569 L369.66746026382964,398.89602969764337 M554.9939931491082,356.27863113013433 L499.14992001261425,324.1973666315476 M425.5119279767704,431.1432200102569 L554.9939931491082,356.27863113013433 M425.5119279767704,431.1432200102569 L425.51460616222073,426.3062104568618 M425.51460616222073,426.3062104568618 L369.6654851286073,394.061705394101 M555.0074309765738,351.44786476867426 L499.15870461788364,319.3692854734698 M425.51460616222073,426.3062104568618 L555.0074309765738,351.44786476867426 M554.9939931491082,356.27863113013433 L555.0074309765738,351.44786476867426" stroke="black"  stroke-width="4"  fill="red"/>
<path d="M365.4794764859438,401.3120850441167 L235.30512718204653,476.4099004344468 M235.29192809435477,471.56913155754154 L235.30512718204653,476.4099004344468 M365.47715241041277,396.4775593468295 L235.29192809435477,471.56913155754154 M365.47715241041277,396.4775593468295 L365.4794764859438,401.3120850441167 M291.1492208827055,508.8297228786594 L235.30512718204653,476.4099004344468 M421.3239445893704,433.5646492183653 L365.4794764859438,401.3120850441167 M291.1492208827055,508.8297228786594 L421.3239445893704,433.5646492183653 M291.1492208827055,508.8297228786594 L291.1406750220295,503.98626881680735 M291.1406750220295,503.98626881680735 L235.29192809435477,471.56913155754154 M421.32627383461,428.7274382715055 L365.47715241041277,396.4775593468295 M291.1406750220295,503.98626881680735 L421.32627383461,428.7274382715055 M421.3239445893704,433.5646492183653 L421.32627383461,428.7274382715055" stroke="black"  stroke-width="4"  fill="red"/>
<path d="M231.09473501446064,478.8388832210947 L101.07537544707901,553.847284754682 M103.39710528132593,547.6468098310656 L101.07537544707901,553.847284754682 M231.0811832456721,473.99791295363997 L103.39710528132593,547.6468098310656 M231.0811832456721,473.99791295363997 L231.09473501446064,478.8388832210947 M156.91829872856394,586.4400296705255 L101.07537544707901,553.847284754682 M286.93880410086484,511.2641227391105 L231.09473501446064,478.8388832210947 M156.91829872856394,586.4400296705255 L286.93880410086484,511.2641227391105 M156.91829872856394,586.4400296705255 L159.2447087967334,580.2338435278064 M159.2447087967334,580.2338435278064 L103.39710528132593,547.6468098310656 M286.92990555292255,506.4204672906114 L231.0811832456721,473.99791295363997 M159.2447087967334,580.2338435278064 L286.92990555292255,506.4204672906114 M286.93880410086484,511.2641227391105 L286.92990555292255,506.4204672906114" stroke="black"  stroke-width="4"  fill="red"/>
<path d="M96.23569662848172,556.6393041380018 L50.79401824811055,582.8546898286888 M50.79401824811055,582.8546898286888 L50.76530860405438,578.0051272325541 M98.55744658816582,550.4383522825374 L50.76530860405438,578.0051272325541 M98.55744658816582,550.4383522825374 L96.23569662848172,556.6393041380018 M106.63629806580514,615.5123286231044 L152.07856283569237,589.2382924061867 M50.79401824811055,582.8546898286888 L106.63629806580514,615.5123286231044 M152.07856283569237,589.2382924061867 L96.23569662848172,556.6393041380018 M106.63629806580514,615.5123286231044 L106.61224119318246,610.6600811200242 M50.76530860405438,578.0051272325541 L106.61224119318246,610.6600811200242 M106.61224119318246,610.6600811200242 L154.4049935219765,583.0316284984374 M154.4049935219765,583.0316284984374 L98.55744658816582,550.4383522825374 M152.07856283569237,589.2382924061867 L154.4049935219765,583.0316284984374" stroke="black"  stroke-width="4"  fill="red"/>
<path d="M676.1432532015183,249.3084730993336 L676.16664475119,244.4935015013519 M50.927932994461685,605.4752400418738 L676.16664475119,244.4935015013519 M50.956615392164736,610.3202002509356 L50.927932994461685,605.4752400418738 M676.1432532015183,249.3084730993336 L50.956615392164736,610.3202002509356 M106.77254414160313,642.9930278588281 L106.74851012522663,638.145390438073 M50.956615392164736,610.3202002509356 L106.77254414160313,642.9930278588281 M50.927932994461685,605.4752400418738 L106.74851012522663,638.145390438073 M731.9872751592211,276.3609935241213 L106.74851012522663,638.145390438073 M731.9592352104765,281.17864258332946 L731.9872751592211,276.3609935241213 M106.77254414160313,642.9930278588281 L731.9592352104765,281.17864258332946 M731.9592352104765,281.17864258332946 L676.1432532015183,249.3084730993336 M731.9872751592211,276.3609935241213 L676.16664475119,244.4935015013519" stroke="black"  stroke-width="4"  fill="red"/>
<path d="M688.4962299997728,301.0396268361211 L632.6745734828588,269.11689341345283 M632.6745734828588,269.11689341345283 L636.7571824101974,265.925319265513 M692.5795977037099,297.84237929486886 L636.7571824101974,265.925319265513 M692.5795977037099,297.84237929486886 L688.4962299997728,301.0396268361211 M688.4962299997728,301.0396268361211 L681.1850102981305,255.4949474015649 M681.1850102981305,255.4949474015649 L751.326523698345,295.5493903086541 M751.326523698345,295.5493903086541 L736.3626313606425,257.37401903460227 M736.3626313606425,257.37401903460227 L645.009093548926,188.47242886069026 M645.009093548926,188.47242886069026 L559.9196163465764,156.71920190562346 M559.9196163465764,156.71920190562346 L555.522107108692,183.73491062247464 M555.522107108692,183.73491062247464 L625.3151244125834,223.5903441795107 M625.3151244125834,223.5903441795107 L632.6745734828588,269.11689341345283 M627.4719010413801,208.44903577493022 L636.7571824101974,265.925319265513 M625.3151244125834,223.5903441795107 L625.3706114631538,209.65952141970033 M627.4719010413801,208.44903577493022 L625.3706114631538,209.65952141970033 M692.5795977037099,297.84237929486886 L683.3552052654386,240.3431841533646 M627.4719010413801,208.44903577493022 L683.3552052654386,240.3431841533646 M681.2539399432212,241.5563502527856 L683.3552052654386,240.3431841533646 M681.2539399432212,241.5563502527856 L681.1850102981305,255.4949474015649 M564.2544317429839,160.8858141675791 L742.7784985039634,262.7337962827031 M751.326523698345,295.5493903086541 L742.7784985039634,262.7337962827031 M681.2539399432212,241.5563502527856 L625.3706114631538,209.65952141970033 M564.2544317429839,160.8858141675791 L555.522107108692,183.73491062247464 M736.3626313606425,257.37401903460227 L739.9537104115382,255.5236151923163 M742.7784985039634,262.7337962827031 L739.9537104115382,255.5236151923163 M645.009093548926,188.47242886069026 L649.4252667675121,187.28646810575805 M739.9537104115382,255.5236151923163 L649.4252667675121,187.28646810575805 M565.084935736518,155.78031990294215 L559.9196163465764,156.71920190562346 M649.4252667675121,187.28646810575805 L565.084935736518,155.78031990294215 M565.084935736518,155.78031990294215 L564.2544317429839,160.8858141675791" stroke="black"  stroke-width="4"  fill="red"/>
<path d="M143.16802443675124,613.0105122669324 L87.34308412131782,580.389650934437 M87.34308412131782,580.389650934437 L91.05774215883935,580.600764353786 M146.8804736165805,613.21814575906 L91.05774215883935,580.600764353786 M146.8804736165805,613.21814575906 L143.16802443675124,613.0105122669324 M143.16802443675124,613.0105122669324 L159.53006896575823,569.3585622447092 M176.9356487649221,579.5108635479348 L159.53006896575823,569.3585622447092 M186.23866378513682,546.8363673759441 L176.9356487649221,579.5108635479348 M186.23866378513682,546.8363673759441 L170.90821247768633,518.3263418478444 M170.90821247768633,518.3263418478444 L155.13074559353214,490.20896951254065 M155.13074559353214,490.20896951254065 L127.7261619447624,493.1889376339899 M127.7261619447624,493.1889376339899 L100.41369739326979,496.84182554820853 M100.41369739326979,496.84182554820853 L86.31753874164008,526.6552639585773 M103.67220988545847,536.7778713352593 L86.31753874164008,526.6552639585773 M103.67220988545847,536.7778713352593 L87.34308412131782,580.389650934437 M103.7222362554138,546.7785019397672 L103.67220988545847,536.7778713352593 M103.7222362554138,546.7785019397672 L91.05774215883935,580.600764353786 M146.8804736165805,613.21814575906 L159.57049520213127,579.3647358037144 M180.4568834055203,591.5514851027062 L159.57049520213127,579.3647358037144 M194.05465949674107,543.5626402770883 L180.4568834055203,591.5514851027062 M194.05465949674107,543.5626402770883 L177.74984702044569,513.9271017875808 M177.74984702044569,513.9271017875808 L160.9841940207713,484.71308153768155 M160.9841940207713,484.71308153768155 L132.2697827237597,487.4595796728305 M132.2697827237597,487.4595796728305 L103.64350343908359,490.91069574074055 M103.64350343908359,490.91069574074055 L82.89982301197296,534.6290806263853 M103.7222362554138,546.7785019397672 L82.89982301197296,534.6290806263853 M159.53006896575823,569.3585622447092 L159.57049520213127,579.3647358037144 M180.4568834055203,591.5514851027062 L176.9356487649221,579.5108635479348 M186.23866378513682,546.8363673759441 L194.05465949674107,543.5626402770883 M155.13074559353214,490.20896951254065 L160.9841940207713,484.71308153768155 M103.64350343908359,490.91069574074055 L100.41369739326979,496.84182554820853 M86.31753874164008,526.6552639585773 L82.89982301197296,534.6290806263853" stroke="black"  stroke-width="4"  fill="red"/>
<path d="M554.9313128218336,378.81159021859895 L499.10894447383316,346.71781241857985 M503.2730878958838,344.3136430929148 L499.10894447383316,346.71781241857985 M559.0954312745454,376.40208977278024 L503.2730878958838,344.3136430929148 M554.9313128218336,378.81159021859895 L559.0954312745454,376.40208977278024 M554.9313128218336,378.81159021859895 L555.0463236797835,337.46632178110565 M555.0463236797835,337.46632178110565 L644.6053601743938,388.8826728135491 M644.6053601743938,388.8826728135491 L631.8120777314183,312.6411961906602 M631.8120777314183,312.6411961906602 L527.3085665600003,230.63935331837678 M527.3085665600003,230.63935331837678 L423.1352810703444,193.12332099204056 M423.1352810703444,193.12332099204056 L410.13949002736786,254.27448634280378 M410.13949002736786,254.27448634280378 L499.1841296297703,305.3955192006111 M499.1841296297703,305.3955192006111 L499.10894447383316,346.71781241857985 M503.350908720641,303.1618595251401 L499.1841296297703,305.3955192006111 M503.350908720641,303.1618595251401 L503.2730878958838,344.3136430929148 M559.0954312745454,376.40208977278024 L559.2129150675393,335.22742499348556 M559.2129150675393,335.22742499348556 L648.4017242336364,386.4230369376681 M648.4017242336364,386.4230369376681 L635.6309466800259,310.58181665337855 M635.6309466800259,310.58181665337855 L531.4807953419503,228.80640488293403 M531.4807953419503,228.80640488293403 L427.6548478918666,191.48274552708418 M427.6548478918666,191.48274552708418 L414.67303056848556,252.25952906060257 M414.67303056848556,252.25952906060257 L503.350908720641,303.1618595251401 M559.2129150675393,335.22742499348556 L555.0463236797835,337.46632178110565 M648.4017242336364,386.4230369376681 L644.6053601743938,388.8826728135491 M631.8120777314183,312.6411961906602 L635.6309466800259,310.58181665337855 M527.3085665600003,230.63935331837678 L531.4807953419503,228.80640488293403 M427.6548478918666,191.48274552708418 L423.1352810703444,193.12332099204056 M410.13949002736786,254.27448634280378 L414.67303056848556,252.25952906060257" stroke="black"  stroke-width="4"  fill="red"/>
<path d="M421.3130799112185,456.1276405240315 L365.4903170558656,423.8625629270918 M369.6766732141138,421.44556907220357 L365.4903170558656,423.8625629270918 M425.49943567943706,453.7052728117706 L369.6766732141138,421.44556907220357 M421.3130799112185,456.1276405240315 L425.49943567943706,453.7052728117706 M421.3130799112185,456.1276405240315 L421.33326390125745,414.2109647239133 M421.33326390125745,414.2109647239133 L514.922444070532,468.2266888393843 M514.922444070532,468.2266888393843 L498.9975053283774,385.7871129131565 M498.9975053283774,385.7871129131565 L393.3862007703674,302.33791942356754 M393.3862007703674,302.33791942356754 L288.21680726283404,264.4398859979814 M288.21680726283404,264.4398859979814 L272.4348172194624,328.2730667464023 M272.4348172194624,328.2730667464023 L365.4701778606477,381.96914960863313 M365.4701778606477,381.96914960863313 L365.4903170558656,423.8625629270918 M369.6594894043104,379.3866211983279 L365.4701778606477,381.96914960863313 M369.6594894043104,379.3866211983279 L369.6766732141138,421.44556907220357 M425.49943567943706,453.7052728117706 L425.52273607018503,411.622969427091 M425.52273607018503,411.622969427091 L519.2788981031633,465.7257376740665 M519.2788981031633,465.7257376740665 L503.50356390326016,383.2611324951004 M503.50356390326016,383.2611324951004 L397.5825056061988,299.7114986667745 M397.5825056061988,299.7114986667745 L292.10266685317276,261.57834011066615 M292.10266685317276,261.57834011066615 L276.4587057666137,325.60433864485526 M276.4587057666137,325.60433864485526 L369.6594894043104,379.3866211983279 M425.52273607018503,411.622969427091 L421.33326390125745,414.2109647239133 M519.2788981031633,465.7257376740665 L514.922444070532,468.2266888393843 M498.9975053283774,385.7871129131565 L503.50356390326016,383.2611324951004 M393.3862007703674,302.33791942356754 L397.5825056061988,299.7114986667745 M292.10266685317276,261.57834011066615 L288.21680726283404,264.4398859979814 M272.4348172194624,328.2730667464023 L276.4587057666137,325.60433864485526" stroke="black"  stroke-width="4"  fill="red"/>
<path d="M286.9803109957338,533.8571456439315 L231.1579466915301,501.41939311782147 M235.3666937948442,498.98947184477197 L231.1579466915301,501.41939311782147 M291.1890826845388,531.4218073182601 L235.3666937948442,498.98947184477197 M286.9803109957338,533.8571456439315 L291.1890826845388,531.4218073182601 M286.9803109957338,533.8571456439315 L286.92456571013736,503.51388536645453 M286.92456571013736,503.51388536645453 L361.66346221699973,546.8986617507799 M361.66346221699973,546.8986617507799 L341.3072307279703,472.87271924854423 M341.3072307279703,472.87271924854423 L258.77935690388796,399.35788631779025 M258.77935690388796,399.35788631779025 L176.64129809252302,377.4906788455963 M176.64129809252302,377.4906788455963 L156.72193016553103,427.9332641402116 M156.72193016553103,427.9332641402116 L231.07305109821556,471.09294278615283 M231.07305109821556,471.09294278615283 L231.1579466915301,501.41939311782147 M235.28262883801145,468.1586268517255 L231.07305109821556,471.09294278615283 M235.28262883801145,468.1586268517255 L235.3666937948442,498.98947184477197 M291.1890826845388,531.4218073182601 L291.1346541391047,500.5738717554396 M291.1346541391047,500.5738717554396 L366.90514716566514,544.5493422006095 M366.90514716566514,544.5493422006095 L346.62243528184524,470.0634588554046 M346.62243528184524,470.0634588554046 L262.99454144823034,395.95494661509235 M262.99454144823034,395.95494661509235 L179.75980055376277,373.4285513836738 M179.75980055376277,373.4285513836738 L159.90832139433346,424.4130935060112 M159.90832139433346,424.4130935060112 L235.28262883801145,468.1586268517255 M291.1346541391047,500.5738717554396 L286.92456571013736,503.51388536645453 M366.90514716566514,544.5493422006095 L361.66346221699973,546.8986617507799 M341.3072307279703,472.87271924854423 L346.62243528184524,470.0634588554046 M258.77935690388796,399.35788631779025 L262.99454144823034,395.95494661509235 M179.75980055376277,373.4285513836738 L176.64129809252302,377.4906788455963 M156.72193016553103,427.9332641402116 L159.90832139433346,424.4130935060112" stroke="black"  stroke-width="4"  fill="red"/></svg>