<svg viewBox="0 0 800 800" xmlns="http://www.w3.org/2000/svg"><path d="M673.3000840852815,262.25678476959143 L673.4542705841836,230.28159787472518 M50.819639792874,621.6759311452174 L50.62800616819288,589.5014034366366 M673.3000840852815,262.25678476959143 L50.819639792874,621.6759311452174 M673.4542705841836,230.28159787472518 L50.62800616819288,589.5014034366366 M675.3817386431865,263.4453813181019 L673.3000840852815,262.25678476959143 M675.5370801168701,231.4695270342277 L673.4542705841836,230.28159787472518 M675.5137679683485,236.26815451276534 L675.5370801168701,231.4695270342277 M677.5965765363544,237.4562822443802 L675.5137679683485,236.26815451276534 M677.4870288932484,259.83984654762304 L677.5965765363544,237.4562822443802 M677.4870288932484,259.83984654762304 L675.4050289409886,258.6512516431036 M675.3817386431865,263.4453813181019 L675.4050289409886,258.6512516431036 M50.819639792874,621.6759311452174 L52.90126254016184,622.8944453344575 M52.90126254016184,622.8944453344575 L52.87270429611408,618.0704568560654 M52.87270429611408,618.0704568560654 L54.954674581385575,619.288973142289 M54.954674581385575,619.288973142289 L54.8221480742352,596.7658703120555 M52.73936920859842,595.5478211904103 L54.8221480742352,596.7658703120555 M52.73936920859842,595.5478211904103 L52.71078383613525,590.7192502466823 M50.62800616819288,589.5014034366366 L52.71078383613525,590.7192502466823 M675.3817386431865,263.4453813181019 L52.90126254016184,622.8944453344575 M52.71078383613525,590.7192502466823 L675.5370801168701,231.4695270342277 M675.5137679683485,236.26815451276534 L633.059526111906,260.7600827192087 M97.98435027897091,569.4459105303501 L52.73936920859842,595.5478211904103 M97.98435027897091,569.4459105303501 L89.13023003312662,593.0934523800292 M89.13023003312662,593.0934523800292 L92.82880892767662,593.3036519809814 M102.80308022774636,566.6659765875718 L92.82880892767662,593.3036519809814 M232.2596423988568,491.9822538804455 L102.80308022774636,566.6659765875718 M232.2596423988568,491.9822538804455 L232.32258046000172,514.4650225467999 M232.32258046000172,514.4650225467999 L52.87270429611408,618.0704568560654 M675.4050289409886,258.6512516431036 L503.25985328025206,358.03931515052517 M503.3022548659281,335.617285030507 L503.25985328025206,358.03931515052517 M628.8696714322277,263.17721739227886 L503.3022548659281,335.617285030507 M628.8696714322277,263.17721739227886 L632.1012159793411,283.16805957492966 M632.1012159793411,283.16805957492966 L636.1661530639483,279.9903003667529 M633.059526111906,260.7600827192087 L636.1661530639483,279.9903003667529 M366.07348427560527,437.24390222450535 L236.5131097231481,512.0456193486752 M236.45180960550545,489.5637851064221 L236.5131097231481,512.0456193486752 M366.06269062980726,414.7910355763451 L236.45180960550545,489.5637851064221 M366.06269062980726,414.7910355763451 L366.07348427560527,437.24390222450535 M499.1137346283852,360.4330778702726 L370.2417195143722,434.8373704873576 M370.23254644295264,412.3854382852165 L370.2417195143722,434.8373704873576 M499.1545328018368,338.01011332214193 L370.23254644295264,412.3854382852165 M499.1545328018368,338.01011332214193 L499.1137346283852,360.4330778702726 M635.1423531398327,261.95023835944755 L677.5965765363544,237.4562822443802 M635.1423531398327,261.95023835944755 L633.059526111906,260.7600827192087 M505.3419094685699,359.23614683009345 L677.4870288932484,259.83984654762304 M635.1423531398327,261.95023835944755 L638.2482177935285,281.1807430340865 M634.1832522593179,284.3587137634504 L638.2482177935285,281.1807430340865 M630.95250011949,264.3675732627464 L634.1832522593179,284.3587137634504 M505.38511973527113,336.8136494961656 L630.95250011949,264.3675732627464 M505.38511973527113,336.8136494961656 L505.3419094685699,359.23614683009345 M505.3419094685699,359.23614683009345 L503.25985328025206,358.03931515052517 M234.4046253816433,515.6748756004687 L232.32258046000172,514.4650225467999 M54.954674581385575,619.288973142289 L234.4046253816433,515.6748756004687 M234.3424959883195,493.19163972256234 L234.4046253816433,515.6748756004687 M104.88588532074613,567.8816066283448 L234.3424959883195,493.19163972256234 M104.88588532074613,567.8816066283448 L94.91086127530639,594.5202011134759 M91.21236451099469,594.3101311564751 L94.91086127530639,594.5202011134759 M100.06715302881355,570.6617733077928 L91.21236451099469,594.3101311564751 M54.8221480742352,596.7658703120555 L100.06715302881355,570.6617733077928 M100.06715302881355,570.6617733077928 L97.98435027897091,569.4459105303501 M638.2482177935285,281.1807430340865 L636.1661530639483,279.9903003667529 M634.1832522593179,284.3587137634504 L632.1012159793411,283.16805957492966 M630.95250011949,264.3675732627464 L628.8696714322277,263.17721739227886 M505.38511973527113,336.8136494961656 L503.3022548659281,335.617285030507 M368.15555000952395,438.4473183406314 L366.07348427560527,437.24390222450535 M238.59515574810248,513.2552704670821 L368.15555000952395,438.4473183406314 M238.59515574810248,513.2552704670821 L236.5131097231481,512.0456193486752 M368.14556505586063,415.99398446948834 L368.15555000952395,438.4473183406314 M368.14556505586063,415.99398446948834 L366.06269062980726,414.7910355763451 M238.5346642995712,490.7729690126139 L236.45180960550545,489.5637851064221 M238.5346642995712,490.7729690126139 L368.14556505586063,415.99398446948834 M372.32378541908446,436.04058627758275 L370.2417195143722,434.8373704873576 M501.1957915636508,361.63010828343675 L499.1137346283852,360.4330778702726 M372.32378541908446,436.04058627758275 L501.1957915636508,361.63010828343675 M501.23739841899646,339.20667652081454 L501.1957915636508,361.63010828343675 M501.23739841899646,339.20667652081454 L499.1545328018368,338.01011332214193 M372.31542103999874,413.5881868524248 L372.32378541908446,436.04058627758275 M372.31542103999874,413.5881868524248 L370.23254644295264,412.3854382852165 M372.31542103999874,413.5881868524248 L501.23739841899646,339.20667652081454 M234.3424959883195,493.19163972256234 L232.2596423988568,491.9822538804455 M104.88588532074613,567.8816066283448 L102.80308022774636,566.6659765875718 M94.91086127530639,594.5202011134759 L92.82880892767662,593.3036519809814 M91.21236451099469,594.3101311564751 L89.13023003312662,593.0934523800292 M238.5346642995712,490.7729690126139 L238.59515574810248,513.2552704670821" stroke="black"  stroke-width="4"  fill="red"/>
<path d="M728.8976082170927,289.1896803727325 L556.7540664159033,388.7894790094803 M556.7540664159033,388.7894790094803 L556.8172666782298,366.35545698485515 M682.3836156571917,293.7609317657289 L556.8172666782298,366.35545698485515 M685.5947766214008,313.7594246966076 L682.3836156571917,293.7609317657289 M689.6604409861548,310.57622879466766 L685.5947766214008,313.7594246966076 M689.6604409861548,310.57622879466766 L686.5734231002934,291.3386499635997 M729.0271440234433,266.7945922661214 L686.5734231002934,291.3386499635997 M728.8976082170927,289.1896803727325 L729.0271440234433,266.7945922661214 M558.8405659539801,389.98886486687763 L730.9840360587928,290.3808031192052 M558.8405659539801,389.98886486687763 L556.7540664159033,388.7894790094803 M730.9840360587928,290.3808031192052 L728.8976082170927,289.1896803727325 M558.8405659539801,389.98886486687763 L558.9045783486035,367.55437562232646 M558.9045783486035,367.55437562232646 L556.8172666782298,366.35545698485515 M684.4708798697657,294.95382257996107 L682.3836156571917,293.7609317657289 M558.9045783486035,367.55437562232646 L684.4708798697657,294.95382257996107 M687.6812447644481,314.9526133348775 L684.4708798697657,294.95382257996107 M687.6812447644481,314.9526133348775 L685.5947766214008,313.7594246966076 M691.7469373412391,311.7692052910465 L689.6604409861548,310.57622879466766 M691.7469373412391,311.7692052910465 L687.6812447644481,314.9526133348775 M691.7469373412391,311.7692052910465 L688.6606852763366,292.5313399076839 M688.6606852763366,292.5313399076839 L686.5734231002934,291.3386499635997 M688.6606852763366,292.5313399076839 L731.1143839141212,267.9852478235937 M731.1143839141212,267.9852478235937 L729.0271440234433,266.7945922661214 M733.0425441684881,296.3689200346677 L730.9561174828207,295.17759866586204 M730.9561174828207,295.17759866586204 L730.9840360587928,290.3808031192052 M731.1143839141212,267.9852478235937 L731.1423287119587,263.18394699959225 M733.2299156592039,264.3746009546038 L731.1423287119587,263.18394699959225 M733.0425441684881,296.3689200346677 L733.2299156592039,264.3746009546038 M108.47558835081361,655.4258464473439 L730.9561174828207,295.17759866586204 M108.47558835081361,655.4258464473439 L108.45165836726636,650.5991923457464 M108.45165836726636,650.5991923457464 L287.90331396869436,546.7623661159414 M287.90331396869436,546.7623661159414 L287.8619867391648,524.2671386048759 M158.40428372282744,599.1176416516378 L287.8619867391648,524.2671386048759 M148.4099080006583,625.7798468938042 L158.40428372282744,599.1176416516378 M148.4099080006583,625.7798468938042 L144.71352840261403,625.5731121569784 M144.71352840261403,625.5731121569784 L153.5854969468275,601.9037919219941 M108.33993202516484,628.0640992356036 L153.5854969468275,601.9037919219941 M108.33993202516484,628.0640992356036 L108.31597928430625,623.2328550067275 M108.31597928430625,623.2328550067275 L731.1423287119587,263.18394699959225 M292.05417845352383,521.8432762052113 L421.66543225996605,446.9039923936529 M292.0938677109117,544.3375693132652 L292.05417845352383,521.8432762052113 M292.0938677109117,544.3375693132652 L421.65461461029207,469.3693182993266 M421.65461461029207,469.3693182993266 L421.66543225996605,446.9039923936529 M425.8352876843158,444.49304450200475 L554.7568811747035,369.9525119457622 M425.8228494607177,466.95743596590324 L425.8352876843158,444.49304450200475 M425.8228494607177,466.95743596590324 L554.6944721633706,392.3879356306726 M554.6944721633706,392.3879356306726 L554.7568811747035,369.9525119457622 M110.56204294121096,656.6471890402402 L733.0425441684881,296.3689200346677 M108.47558835081361,655.4258464473439 L110.56204294121096,656.6471890402402 M108.31597928430625,623.2328550067275 L110.40359418172193,624.4535302533243 M110.40359418172193,624.4535302533243 L733.2299156592039,264.3746009546038 M110.56204294121096,656.6471890402402 L110.40359418172193,624.4535302533243 M292.05417845352383,521.8432762052113 L289.9668531810421,520.6314969420379 M419.57809877267727,445.6984682023014 L289.9668531810421,520.6314969420379 M421.66543225996605,446.9039923936529 L419.57809877267727,445.6984682023014 M419.5680932806995,468.1633268871598 L419.57809877267727,445.6984682023014 M421.65461461029207,469.3693182993266 L419.5680932806995,468.1633268871598 M419.5680932806995,468.1633268871598 L290.0073545865267,543.1253228478979 M292.0938677109117,544.3375693132652 L290.0073545865267,543.1253228478979 M285.81680157654364,545.549917065048 L106.36520478015251,649.378052114143 M287.90331396869436,546.7623661159414 L285.81680157654364,545.549917065048 M106.36520478015251,649.378052114143 L108.45165836726636,650.5991923457464 M106.25266635979506,626.8434261472169 L108.33993202516484,628.0640992356036 M106.36520478015251,649.378052114143 L106.25266635979506,626.8434261472169 M425.8352876843158,444.49304450200475 L423.7479543975612,443.28772128019835 M552.6695683850025,368.7533939384849 L423.7479543975612,443.28772128019835 M554.7568811747035,369.9525119457622 L552.6695683850025,368.7533939384849 M423.73632833142534,465.75164552299685 L423.7479543975612,443.28772128019835 M425.8228494607177,466.95743596590324 L423.73632833142534,465.75164552299685 M552.6079715072683,391.1883504031328 L552.6695683850025,368.7533939384849 M554.6944721633706,392.3879356306726 L552.6079715072683,391.1883504031328 M552.6079715072683,391.1883504031328 L423.73632833142534,465.75164552299685 M290.0073545865267,543.1253228478979 L289.9668531810421,520.6314969420379 M287.8619867391648,524.2671386048759 L285.7746621997747,523.0551567552574 M285.81680157654364,545.549917065048 L285.7746621997747,523.0551567552574 M151.4982113809586,600.6853122432894 L106.25266635979506,626.8434261472169 M142.62691318855354,624.3538150978586 L151.4982113809586,600.6853122432894 M146.323375604216,624.5606800559947 L142.62691318855354,624.3538150978586 M146.323375604216,624.5606800559947 L156.31699623851495,597.8993954613495 M285.7746621997747,523.0551567552574 L156.31699623851495,597.8993954613495 M153.5854969468275,601.9037919219941 L151.4982113809586,600.6853122432894 M144.71352840261403,625.5731121569784 L142.62691318855354,624.3538150978586 M148.4099080006583,625.7798468938042 L146.323375604216,624.5606800559947 M158.40428372282744,599.1176416516378 L156.31699623851495,597.8993954613495" stroke="black"  stroke-width="4"  fill="red"/>
<path d="M675.5137679683485,236.26815451276534 L633.059526111906,260.7600827192087 M632.3517565887057,256.3790654030772 L633.059526111906,260.7600827192087 M675.5370801168701,231.4695270342277 L632.3517565887057,256.3790654030772 M675.5137679683485,236.26815451276534 L675.5370801168701,231.4695270342277 M731.1143839141212,267.9852478235937 L675.5137679683485,236.26815451276534 M688.6606852763366,292.5313399076839 L731.1143839141212,267.9852478235937 M688.6606852763366,292.5313399076839 L633.059526111906,260.7600827192087 M688.6606852763366,292.5313399076839 L687.9575571512905,288.14857776263653 M687.9575571512905,288.14857776263653 L632.3517565887057,256.3790654030772 M731.1423287119587,263.18394699959225 L675.5370801168701,231.4695270342277 M687.9575571512905,288.14857776263653 L731.1423287119587,263.18394699959225 M731.1143839141212,267.9852478235937 L731.1423287119587,263.18394699959225" stroke="black"  stroke-width="4"  fill="red"/>
<path d="M628.8696714322277,263.17721739227886 L503.3022548659281,335.617285030507 M503.3113451961468,330.81030305766495 L503.3022548659281,335.617285030507 M628.1614340591714,258.7960670902179 L503.3113451961468,330.81030305766495 M628.1614340591714,258.7960670902179 L628.8696714322277,263.17721739227886 M558.9045783486035,367.55437562232646 L503.3022548659281,335.617285030507 M684.4708798697657,294.95382257996107 L628.8696714322277,263.17721739227886 M558.9045783486035,367.55437562232646 L684.4708798697657,294.95382257996107 M558.9045783486035,367.55437562232646 L558.9183017530324,362.74472007243384 M558.9183017530324,362.74472007243384 L503.3113451961468,330.81030305766495 M683.7672837731939,290.5709276767363 L628.1614340591714,258.7960670902179 M558.9183017530324,362.74472007243384 L683.7672837731939,290.5709276767363 M684.4708798697657,294.95382257996107 L683.7672837731939,290.5709276767363" stroke="black"  stroke-width="4"  fill="red"/>
<path d="M499.1545328018368,338.01011332214193 L370.23254644295264,412.3854382852165 M370.2305798572337,407.5720396741235 L370.23254644295264,412.3854382852165 M499.16327938236134,333.20293083264534 L370.2305798572337,407.5720396741235 M499.16327938236134,333.20293083264534 L499.1545328018368,338.01011332214193 M425.8352876843158,444.49304450200475 L370.23254644295264,412.3854382852165 M554.7568811747035,369.9525119457622 L499.1545328018368,338.01011332214193 M425.8352876843158,444.49304450200475 L554.7568811747035,369.9525119457622 M425.8352876843158,444.49304450200475 L425.8379542770634,439.6769722643405 M425.8379542770634,439.6769722643405 L370.2305798572337,407.5720396741235 M554.7702608356444,365.14265587596384 L499.16327938236134,333.20293083264534 M425.8379542770634,439.6769722643405 L554.7702608356444,365.14265587596384 M554.7568811747035,369.9525119457622 L554.7702608356444,365.14265587596384" stroke="black"  stroke-width="4"  fill="red"/>
<path d="M366.06269062980726,414.7910355763451 L236.45180960550545,489.5637851064221 M236.43866765093765,484.74396981772816 L236.45180960550545,489.5637851064221 M366.0603766141909,409.9774364432534 L236.43866765093765,484.74396981772816 M366.0603766141909,409.9774364432534 L366.06269062980726,414.7910355763451 M292.05417845352383,521.8432762052113 L236.45180960550545,489.5637851064221 M421.66543225996605,446.9039923936529 L366.06269062980726,414.7910355763451 M292.05417845352383,521.8432762052113 L421.66543225996605,446.9039923936529 M292.05417845352383,521.8432762052113 L292.0456695841708,517.0207873545711 M292.0456695841708,517.0207873545711 L236.43866765093765,484.74396981772816 M421.66775142291357,442.087719634269 L366.0603766141909,409.9774364432534 M292.0456695841708,517.0207873545711 L421.66775142291357,442.087719634269 M421.66543225996605,446.9039923936529 L421.66775142291357,442.087719634269" stroke="black"  stroke-width="4"  fill="red"/>
<path d="M232.2596423988568,491.9822538804455 L102.80308022774636,566.6659765875718 M105.11476030086612,560.4923408297093 L102.80308022774636,566.6659765875718 M232.24614928979562,487.16223807293443 L105.11476030086612,560.4923408297093 M232.24614928979562,487.16223807293443 L232.2596423988568,491.9822538804455 M158.40428372282744,599.1176416516378 L102.80308022774636,566.6659765875718 M287.8619867391648,524.2671386048759 L232.2596423988568,491.9822538804455 M158.40428372282744,599.1176416516378 L287.8619867391648,524.2671386048759 M158.40428372282744,599.1176416516378 L160.7206237711677,592.9383193960621 M160.7206237711677,592.9383193960621 L105.11476030086612,560.4923408297093 M287.8531267091757,519.4444492393038 L232.24614928979562,487.16223807293443 M160.7206237711677,592.9383193960621 L287.8531267091757,519.4444492393038 M287.8619867391648,524.2671386048759 L287.8531267091757,519.4444492393038" stroke="black"  stroke-width="4"  fill="red"/>
<path d="M97.98435027897091,569.4459105303501 L52.73936920859842,595.5478211904103 M52.73936920859842,595.5478211904103 L52.71078383613525,590.7192502466823 M100.29605039041354,563.2717999050708 L52.71078383613525,590.7192502466823 M100.29605039041354,563.2717999050708 L97.98435027897091,569.4459105303501 M108.33993202516484,628.0640992356036 L153.5854969468275,601.9037919219941 M52.73936920859842,595.5478211904103 L108.33993202516484,628.0640992356036 M153.5854969468275,601.9037919219941 L97.98435027897091,569.4459105303501 M108.33993202516484,628.0640992356036 L108.31597928430625,623.2328550067275 M52.71078383613525,590.7192502466823 L108.31597928430625,623.2328550067275 M108.31597928430625,623.2328550067275 L155.90185752403556,595.7239939694259 M155.90185752403556,595.7239939694259 L100.29605039041354,563.2717999050708 M153.5854969468275,601.9037919219941 L155.90185752403556,595.7239939694259" stroke="black"  stroke-width="4"  fill="red"/>
<path d="M675.3817386431865,263.4453813181019 L675.4050289409886,258.6512516431036 M52.87270429611408,618.0704568560654 L675.4050289409886,258.6512516431036 M52.90126254016184,622.8944453344575 L52.87270429611408,618.0704568560654 M675.3817386431865,263.4453813181019 L52.90126254016184,622.8944453344575 M108.47558835081361,655.4258464473439 L108.45165836726636,650.5991923457464 M52.90126254016184,622.8944453344575 L108.47558835081361,655.4258464473439 M52.87270429611408,618.0704568560654 L108.45165836726636,650.5991923457464 M730.9840360587928,290.3808031192052 L108.45165836726636,650.5991923457464 M730.9561174828207,295.17759866586204 L730.9840360587928,290.3808031192052 M108.47558835081361,655.4258464473439 L730.9561174828207,295.17759866586204 M730.9561174828207,295.17759866586204 L675.3817386431865,263.4453813181019 M730.9840360587928,290.3808031192052 L675.4050289409886,258.6512516431036" stroke="black"  stroke-width="4"  fill="red"/>
<path d="M687.6812447644481,314.9526133348775 L632.1012159793411,283.16805957492966 M632.1012159793411,283.16805957492966 L636.1661530639483,279.9903003667529 M691.7469373412391,311.7692052910465 L636.1661530639483,279.9903003667529 M691.7469373412391,311.7692052910465 L687.6812447644481,314.9526133348775 M687.6812447644481,314.9526133348775 L677.7378075781478,253.0107456164652 M677.7378075781478,253.0107456164652 L749.371993831807,293.8961307236781 M749.371993831807,293.8961307236781 L729.5503637899826,242.94120547805278 M729.5503637899826,242.94120547805278 L639.9520649611723,175.37087593303315 M639.9520649611723,175.37087593303315 L556.505712356452,144.31169527864344 M556.505712356452,144.31169527864344 L550.8190546119276,180.57156030937938 M550.8190546119276,180.57156030937938 L622.0921897656283,221.25087462780817 M622.0921897656283,221.25087462780817 L632.1012159793411,283.16805957492966 M622.2012234300862,193.54688101330683 L636.1661530639483,279.9903003667529 M622.2012234300862,193.54688101330683 L622.0921897656283,221.25087462780817 M691.7469373412391,311.7692052910465 L677.8735737341583,225.2912650601881 M677.8735737341583,225.2912650601881 L741.0031461882586,261.28775850357346 M741.0031461882586,261.28775850357346 L733.1556973413378,241.1076996484753 M733.1556973413378,241.1076996484753 L644.3482571243621,174.16718855282207 M644.3482571243621,174.16718855282207 L561.6223385170726,143.35281095975995 M561.6223385170726,143.35281095975995 L559.3687424323,157.7197891711611 M559.3687424323,157.7197891711611 L622.2012234300862,193.54688101330683 M677.7378075781478,253.0107456164652 L677.8735737341583,225.2912650601881 M749.371993831807,293.8961307236781 L741.0031461882586,261.28775850357346 M729.5503637899826,242.94120547805278 L733.1556973413378,241.1076996484753 M639.9520649611723,175.37087593303315 L644.3482571243621,174.16718855282207 M561.6223385170726,143.35281095975995 L556.505712356452,144.31169527864344 M559.3687424323,157.7197891711611 L550.8190546119276,180.57156030937938" stroke="black"  stroke-width="4"  fill="red"/>
<path d="M144.71352840261403,625.5731121569784 L89.13023003312662,593.0934523800292 M89.13023003312662,593.0934523800292 L92.82880892767662,593.3036519809814 M148.4099080006583,625.7798468938042 L92.82880892767662,593.3036519809814 M148.4099080006583,625.7798468938042 L144.71352840261403,625.5731121569784 M144.71352840261403,625.5731121569784 L164.83237261516254,571.8984770130744 M164.83237261516254,571.8984770130744 L189.4242321293793,586.2362386922505 M189.4242321293793,586.2362386922505 L198.36787158888004,555.6096147877313 M198.36787158888004,555.6096147877313 L208.15188400994856,518.8712497976926 M208.15188400994856,518.8712497976926 L173.19536866901362,459.06978004292114 M173.19536866901362,459.06978004292114 L114.04098476782463,464.14963339404306 M114.04098476782463,464.14963339404306 L97.7598419175664,497.0285719003272 M97.7598419175664,497.0285719003272 L84.69580240222433,525.1765508067439 M84.69580240222433,525.1765508067439 L109.20859580021016,539.4682146651855 M109.20859580021016,539.4682146651855 L89.13023003312662,593.0934523800292 M114.3656881383481,535.7864990682599 L92.82880892767662,593.3036519809814 M114.3656881383481,535.7864990682599 L109.20859580021016,539.4682146651855 M148.4099080006583,625.7798468938042 L169.99020198354063,568.2097161023739 M169.99020198354063,568.2097161023739 L197.27834861589238,584.1158236718143 M197.27834861589238,584.1158236718143 L206.04950845871684,553.1015304942148 M206.04950845871684,553.1015304942148 L215.84169948313465,515.5228263049939 M215.84169948313465,515.5228263049939 L178.96056099199157,453.76828656044665 M178.96056099199157,453.76828656044665 L117.37087387764711,458.28153167611896 M117.37087387764711,458.28153167611896 L100.58126126566196,491.7010799447645 M100.58126126566196,491.7010799447645 L87.16820721797865,519.9332400336459 M87.16820721797865,519.9332400336459 L114.3656881383481,535.7864990682599 M169.99020198354063,568.2097161023739 L164.83237261516254,571.8984770130744 M197.27834861589238,584.1158236718143 L189.4242321293793,586.2362386922505 M208.15188400994856,518.8712497976926 L215.84169948313465,515.5228263049939 M173.19536866901362,459.06978004292114 L178.96056099199157,453.76828656044665 M117.37087387764711,458.28153167611896 L114.04098476782463,464.14963339404306 M84.69580240222433,525.1765508067439 L87.16820721797865,519.9332400336459" stroke="black"  stroke-width="4"  fill="red"/>
<path d="M554.6944721633706,392.3879356306726 L499.1137346283852,360.4330778702726 M503.25985328025206,358.03931515052517 L499.1137346283852,360.4330778702726 M558.8405659539801,389.98886486687763 L503.25985328025206,358.03931515052517 M554.6944721633706,392.3879356306726 L558.8405659539801,389.98886486687763 M554.6944721633706,392.3879356306726 L554.8982827988993,319.1200234826751 M554.8982827988993,319.1200234826751 L641.2455415462507,368.63718269583734 M641.2455415462507,368.63718269583734 L629.0171504263135,295.7644893984314 M629.0171504263135,295.7644893984314 L527.2577628772797,215.9595484297057 M527.2577628772797,215.9595484297057 L425.8106285648783,179.4987363799544 M425.8106285648783,179.4987363799544 L413.38614693661077,237.96771982251386 M413.38614693661077,237.96771982251386 L499.24697009215015,287.20592508860074 M499.24697009215015,287.20592508860074 L499.1137346283852,360.4330778702726 M503.39800687242945,284.98346227135426 L499.24697009215015,287.20592508860074 M503.39800687242945,284.98346227135426 L503.25985328025206,358.03931515052517 M558.8405659539801,389.98886486687763 L559.0491324661975,316.89234656512184 M559.0491324661975,316.89234656512184 L645.0262803925991,366.1893704046343 M645.0262803925991,366.1893704046343 L632.8218121311559,293.7174936928083 M632.8218121311559,293.7174936928083 L531.4139912432629,214.13845720529548 M531.4139912432629,214.13845720529548 L430.31256630806973,177.86769989614032 M430.31256630806973,177.86769989614032 L417.90391377663724,235.963409302296 M417.90391377663724,235.963409302296 L503.39800687242945,284.98346227135426 M559.0491324661975,316.89234656512184 L554.8982827988993,319.1200234826751 M645.0262803925991,366.1893704046343 L641.2455415462507,368.63718269583734 M629.0171504263135,295.7644893984314 L632.8218121311559,293.7174936928083 M527.2577628772797,215.9595484297057 L531.4139912432629,214.13845720529548 M430.31256630806973,177.86769989614032 L425.8106285648783,179.4987363799544 M413.38614693661077,237.96771982251386 L417.90391377663724,235.963409302296" stroke="black"  stroke-width="4"  fill="red"/>
<path d="M421.65461461029207,469.3693182993266 L366.07348427560527,437.24390222450535 M370.2417195143722,434.8373704873576 L366.07348427560527,437.24390222450535 M425.8228494607177,466.95743596590324 L370.2417195143722,434.8373704873576 M421.65461461029207,469.3693182993266 L425.8228494607177,466.95743596590324 M421.65461461029207,469.3693182993266 L421.6901899511913,395.4889790763663 M421.6901899511913,395.4889790763663 L512.0385826285856,447.57624737636587 M512.0385826285856,447.57624737636587 L496.7741051429866,368.57359739355695 M496.7741051429866,368.57359739355695 L393.8486188126503,287.2881525755664 M393.8486188126503,287.2881525755664 L291.3447147853837,250.42787416602792 M291.3447147853837,250.42787416602792 L276.21421884691,311.6197954244958 M276.21421884691,311.6197954244958 L366.0379879098581,363.4046099657468 M366.0379879098581,363.4046099657468 L366.07348427560527,437.24390222450535 M370.21148450490904,360.83441645494855 L366.0379879098581,363.4046099657468 M370.21148450490904,360.83441645494855 L370.2417195143722,434.8373704873576 M425.8228494607177,466.95743596590324 L425.86384665389005,392.91334204207436 M425.86384665389005,392.91334204207436 L516.3812100372745,445.0890207050074 M516.3812100372745,445.0890207050074 L501.26006352791273,366.057685758968 M501.26006352791273,366.057685758968 L398.02884923589403,284.6726779904864 M398.02884923589403,284.6726779904864 L295.21851951124717,247.5808361209946 M295.21851951124717,247.5808361209946 L280.22028756093215,308.9620286749975 M280.22028756093215,308.9620286749975 L370.21148450490904,360.83441645494855 M425.86384665389005,392.91334204207436 L421.6901899511913,395.4889790763663 M516.3812100372745,445.0890207050074 L512.0385826285856,447.57624737636587 M496.7741051429866,368.57359739355695 L501.26006352791273,366.057685758968 M393.8486188126503,287.2881525755664 L398.02884923589403,284.6726779904864 M295.21851951124717,247.5808361209946 L291.3447147853837,250.42787416602792 M276.21421884691,311.6197954244958 L280.22028756093215,308.9620286749975" stroke="black"  stroke-width="4"  fill="red"/>
<path d="M287.90331396869436,546.7623661159414 L232.32258046000172,514.4650225467999 M236.5131097231481,512.0456193486752 L232.32258046000172,514.4650225467999 M292.0938677109117,544.3375693132652 L236.5131097231481,512.0456193486752 M287.90331396869436,546.7623661159414 L292.0938677109117,544.3375693132652 M287.90331396869436,546.7623661159414 L287.78869930749,484.3753416469162 M287.78869930749,484.3753416469162 L359.1532237609614,525.7554220995111 M359.1532237609614,525.7554220995111 L339.7374020410372,455.2613048450862 M339.7374020410372,455.2613048450862 L259.7575283849108,383.9921083712028 M259.7575283849108,383.9921083712028 L180.1487994260977,362.91436314092954 M180.1487994260977,362.91436314092954 L161.14520913469408,410.94224793150244 M161.14520913469408,410.94224793150244 L232.14803164354296,452.1125987504599 M232.14803164354296,452.1125987504599 L232.32258046000172,514.4650225467999 M236.34172918848847,449.19176325937826 L232.14803164354296,452.1125987504599 M236.34172918848847,449.19176325937826 L236.5131097231481,512.0456193486752 M292.0938677109117,544.3375693132652 L291.9829059099484,481.4488321854532 M291.9829059099484,481.4488321854532 L364.3852526518742,523.4229173302614 M364.3852526518742,523.4229173302614 L345.0332990469792,452.4678779352229 M345.0332990469792,452.4678779352229 L263.95655266046464,380.5979505968258 M263.95655266046464,380.5979505968258 L183.25421970836143,358.872356256602 M183.25421970836143,358.872356256602 L164.30930908870982,407.43213707997035 M164.30930908870982,407.43213707997035 L236.34172918848847,449.19176325937826 M291.9829059099484,481.4488321854532 L287.78869930749,484.3753416469162 M364.3852526518742,523.4229173302614 L359.1532237609614,525.7554220995111 M339.7374020410372,455.2613048450862 L345.0332990469792,452.4678779352229 M259.7575283849108,383.9921083712028 L263.95655266046464,380.5979505968258 M183.25421970836143,358.872356256602 L180.1487994260977,362.91436314092954 M161.14520913469408,410.94224793150244 L164.30930908870982,407.43213707997035" stroke="black"  stroke-width="4"  fill="red"/></svg>