<svg viewBox="0 0 800 800" xmlns="http://www.w3.org/2000/svg"><path d="M665.9512887910073,267.3089806581919 L666.1042877090861,235.5800742032212 M48.26533586938592,623.9597958973239 L48.075178252133355,592.033083998657 M665.9512887910073,267.3089806581919 L48.26533586938592,623.9597958973239 M666.1042877090861,235.5800742032212 L48.075178252133355,592.033083998657 M668.0169099539578,268.4884223554175 L665.9512887910073,267.3089806581919 M668.1710549509296,236.75885365182657 L666.1042877090861,235.5800742032212 M668.1479223580807,241.5205209684051 L668.1710549509296,236.75885365182657 M670.2146886426738,242.69949745967352 L668.1479223580807,241.5205209684051 M670.1059847613831,264.91065826513045 L670.2146886426738,242.69949745967352 M670.1059847613831,264.91065826513045 L668.0400208643866,263.73121819923347 M668.0169099539578,268.4884223554175 L668.0400208643866,263.73121819923347 M48.26533586938592,623.9597958973239 L50.330925466732026,625.1689248025457 M50.330925466732026,625.1689248025457 L50.30258718502347,620.3820918225223 M50.30258718502347,620.3820918225223 L52.36852164353371,621.5912228085762 M52.36852164353371,621.5912228085762 L52.23701588683542,599.2415982348134 M50.1702790758369,598.0329308151261 L52.23701588683542,599.2415982348134 M50.1702790758369,598.0329308151261 L50.14191387466235,593.2415506649966 M48.075178252133355,592.033083998657 L50.14191387466235,593.2415506649966 M668.0169099539578,268.4884223554175 L50.330925466732026,625.1689248025457 M50.14191387466235,593.2415506649966 L668.1710549509296,236.75885365182657 M668.1479223580807,241.5205209684051 L626.02067309731,265.8238065604236 M95.06677261812342,572.1320632345202 L50.1702790758369,598.0329308151261 M95.06677261812342,572.1320632345202 L86.28084889717218,595.5974661328826 M86.28084889717218,595.5974661328826 L89.95094046371582,595.8060467268728 M99.84838757096708,569.3735409994061 L89.95094046371582,595.8060467268728 M228.30784473112962,495.26504995994225 L99.84838757096708,569.3735409994061 M228.30784473112962,495.26504995994225 L228.37029802846578,517.5746510330805 M228.37029802846578,517.5746510330805 L50.30258718502347,620.3820918225223 M668.0400208643866,263.73121819923347 L497.2207479959314,362.35377137261213 M497.2628229945821,340.10444102318377 L497.2207479959314,362.35377137261213 M621.8630896677419,268.22232389147393 L497.2628229945821,340.10444102318377 M621.8630896677419,268.22232389147393 L625.0697440956756,288.0591918871147 M625.0697440956756,288.0591918871147 L629.103372074987,284.9059085307366 M626.02067309731,265.8238065604236 L629.103372074987,284.9059085307366 M361.09102079973513,440.9483060140464 L232.52855084570064,515.1738826496913 M232.46772287603915,492.86520880349923 L232.52855084570064,515.1738826496913 M361.0803102891458,418.6683766466972 L232.46772287603915,492.86520880349923 M361.0803102891458,418.6683766466972 L361.09102079973513,440.9483060140464 M493.1065637289611,364.7290967666431 L365.22715130643076,438.56030995260215 M365.2180488881733,416.2813078339483 L365.22715130643076,438.56030995260215 M493.14704766524693,342.4788391862881 L365.2180488881733,416.2813078339483 M493.14704766524693,342.4788391862881 L493.1065637289611,364.7290967666431 M628.0874576996409,267.004795340885 L670.2146886426738,242.69949745967352 M628.0874576996409,267.004795340885 L626.02067309731,265.8238065604236 M499.2867676958423,363.54138477197165 L670.1059847613831,264.91065826513045 M628.0874576996409,267.004795340885 L631.1694002503734,286.0871821275423 M627.1357440405843,289.24067537592146 L631.1694002503734,286.0871821275423 M623.9298759166279,269.4035113599434 L627.1357440405843,289.24067537592146 M499.3296451468661,341.29159080722536 L623.9298759166279,269.4035113599434 M499.3296451468661,341.29159080722536 L499.2867676958423,363.54138477197165 M499.2867676958423,363.54138477197165 L497.2207479959314,362.35377137261213 M230.43630654847914,518.7751855128424 L228.37029802846578,517.5746510330805 M52.36852164353371,621.5912228085762 L230.43630654847914,518.7751855128424 M230.3746556904136,496.46512082672587 L230.43630654847914,518.7751855128424 M101.91515040731923,570.5798079705535 L230.3746556904136,496.46512082672587 M101.91515040731923,570.5798079705535 L92.01695635252054,597.01322571068 M88.34694628362877,596.8047737620927 L92.01695635252054,597.01322571068 M97.13353312936607,573.3385611497442 L88.34694628362877,596.8047737620927 M52.23701588683542,599.2415982348134 L97.13353312936607,573.3385611497442 M97.13353312936607,573.3385611497442 L95.06677261812342,572.1320632345202 M631.1694002503734,286.0871821275423 L629.103372074987,284.9059085307366 M627.1357440405843,289.24067537592146 L625.0697440956756,288.0591918871147 M623.9298759166279,269.4035113599434 L621.8630896677419,268.22232389147393 M499.3296451468661,341.29159080722536 L497.2628229945821,340.10444102318377 M363.15704997172446,442.1424531350785 L361.09102079973513,440.9483060140464 M234.59456046052884,516.3742167495444 L363.15704997172446,442.1424531350785 M234.59456046052884,516.3742167495444 L232.52855084570064,515.1738826496913 M363.14714192453204,419.86206014340814 L363.15704997172446,442.1424531350785 M363.14714192453204,419.86206014340814 L361.0803102891458,418.6683766466972 M234.5345349314182,494.065079289716 L232.46772287603915,492.86520880349923 M234.5345349314182,494.065079289716 L363.14714192453204,419.86206014340814 M367.29318064789817,439.7542582906909 L365.22715130643076,438.56030995260215 M495.1725841700666,365.9169073689054 L493.1065637289611,364.7290967666431 M367.29318064789817,439.7542582906909 L495.1725841700666,365.9169073689054 M495.21387055958763,343.66618617265533 L495.1725841700666,365.9169073689054 M495.21387055958763,343.66618617265533 L493.14704766524693,342.4788391862881 M367.28488069323527,417.4747925476821 L367.29318064789817,439.7542582906909 M367.28488069323527,417.4747925476821 L365.2180488881733,416.2813078339483 M367.28488069323527,417.4747925476821 L495.21387055958763,343.66618617265533 M230.3746556904136,496.46512082672587 L228.30784473112962,495.26504995994225 M101.91515040731923,570.5798079705535 L99.84838757096708,569.3735409994061 M92.01695635252054,597.01322571068 L89.95094046371582,595.8060467268728 M88.34694628362877,596.8047737620927 L86.28084889717218,595.5974661328826 M234.5345349314182,494.065079289716 L234.59456046052884,516.3742167495444" stroke="black"  stroke-width="4"  fill="red"/>
<path d="M721.1205876634854,294.03443273962296 L550.3029360702051,392.86709020836395 M550.3029360702051,392.86709020836395 L550.3656495491875,370.6058603188096 M674.9648568578193,298.57047527496235 L550.3656495491875,370.6058603188096 M678.1512847020176,318.41493509096165 L674.9648568578193,298.57047527496235 M682.1856343597922,315.25625691551954 L678.1512847020176,318.41493509096165 M682.1856343597922,315.25625691551954 L679.122393414638,296.1668504592565 M721.2491257544675,271.81183688985254 L679.122393414638,296.1668504592565 M721.1205876634854,294.03443273962296 L721.2491257544675,271.81183688985254 M552.3733648961461,394.0572381126717 L723.1909453452718,295.2163811774378 M552.3733648961461,394.0572381126717 L550.3029360702051,392.86709020836395 M723.1909453452718,295.2163811774378 L721.1205876634854,294.03443273962296 M552.3733648961461,394.0572381126717 L552.4368842521903,371.79554460182953 M552.4368842521903,371.79554460182953 L550.3656495491875,370.6058603188096 M677.0360444685539,299.75417816246113 L674.9648568578193,298.57047527496235 M552.4368842521903,371.79554460182953 L677.0360444685539,299.75417816246113 M680.2216823747408,319.5989335085872 L677.0360444685539,299.75417816246113 M680.2216823747408,319.5989335085872 L678.1512847020176,318.41493509096165 M684.2560600272568,316.4400448252208 L682.1856343597922,315.25625691551954 M684.2560600272568,316.4400448252208 L680.2216823747408,319.5989335085872 M684.2560600272568,316.4400448252208 L681.1935790045275,297.3503540237565 M681.1935790045275,297.3503540237565 L679.122393414638,296.1668504592565 M681.1935790045275,297.3503540237565 L723.320289230639,272.9933217370668 M723.320289230639,272.9933217370668 L721.2491257544675,271.81183688985254 M725.2335983394221,301.1583762024188 L723.1632418047643,299.9762306721073 M723.1632418047643,299.9762306721073 L723.1909453452718,295.2163811774378 M723.320289230639,272.9933217370668 L723.3480187910448,268.22900166576255 M725.4195266506717,269.41048492285864 L723.3480187910448,268.22900166576255 M725.2335983394221,301.1583762024188 L725.4195266506717,269.41048492285864 M105.47720469699794,657.4497613822882 L723.1632418047643,299.9762306721073 M105.47720469699794,657.4497613822882 L105.4534590278347,652.6602833103187 M105.4534590278347,652.6602833103187 L283.52293560316923,549.623232835549 M283.52293560316923,549.623232835549 L283.4819266857202,527.3012688786634 M155.02133746739005,601.5752556762047 L283.4819266857202,527.3012688786634 M145.10394078704584,628.0321023177406 L155.02133746739005,601.5752556762047 M145.10394078704584,628.0321023177406 L141.4360315775068,627.8269599006751 M141.4360315775068,627.8269599006751 L150.23966612501866,604.3399463592738 M105.3425932284024,630.2987608086139 L150.23966612501866,604.3399463592738 M105.3425932284024,630.2987608086139 L105.31882497720994,625.5047279636098 M105.31882497720994,625.5047279636098 L723.3480187910448,268.22900166576255 M287.6418291495759,524.8960756395577 L416.254786473567,450.53399188763456 M287.68121271093145,547.2171123904242 L287.6418291495759,524.8960756395577 M287.68121271093145,547.2171123904242 L416.24405214398524,472.8262845483537 M416.24405214398524,472.8262845483537 L416.254786473567,450.53399188763456 M420.3925246867934,448.1416136859549 L548.3211336213365,374.1752099130205 M420.3801822653306,470.4329791021901 L420.3925246867934,448.1416136859549 M420.3801822653306,470.4329791021901 L548.2592052989457,396.4378306669416 M548.2592052989457,396.4378306669416 L548.3211336213365,374.1752099130205 M107.54758892145696,658.6616969061332 L725.2335983394221,301.1583762024188 M105.47720469699794,657.4497613822882 L107.54758892145696,658.6616969061332 M105.31882497720994,625.5047279636098 L107.39036057172865,626.7160012812142 M107.39036057172865,626.7160012812142 L725.4195266506717,269.41048492285864 M107.54758892145696,658.6616969061332 L107.39036057172865,626.7160012812142 M287.6418291495759,524.8960756395577 L285.5705809492315,523.6936297864115 M414.18353012168797,449.3377529282703 L285.5705809492315,523.6936297864115 M416.254786473567,450.53399188763456 L414.18353012168797,449.3377529282703 M414.17360169437194,471.6295819668193 L414.18353012168797,449.3377529282703 M416.24405214398524,472.8262845483537 L414.17360169437194,471.6295819668193 M414.17360169437194,471.6295819668193 L285.61077040332725,546.0142029335858 M287.68121271093145,547.2171123904242 L285.61077040332725,546.0142029335858 M281.45249402215956,548.4201223535462 L103.3830757989316,651.448548589132 M283.52293560316923,549.623232835549 L281.45249402215956,548.4201223535462 M103.3830757989316,651.448548589132 L105.4534590278347,652.6602833103187 M103.27140417606188,629.0874896325962 L105.3425932284024,630.2987608086139 M103.3830757989316,651.448548589132 L103.27140417606188,629.0874896325962 M420.3925246867934,448.1416136859549 L418.321268533904,446.9455741482207 M546.2498978076273,372.98532779578784 L418.321268533904,446.9455741482207 M548.3211336213365,374.1752099130205 L546.2498978076273,372.98532779578784 M418.30973201447483,469.23647594200315 L418.321268533904,446.9455741482207 M420.3801822653306,470.4329791021901 L418.30973201447483,469.23647594200315 M546.1887753635906,395.24748492808726 L546.2498978076273,372.98532779578784 M548.2592052989457,396.4378306669416 L546.1887753635906,395.24748492808726 M546.1887753635906,395.24748492808726 L418.30973201447483,469.23647594200315 M285.61077040332725,546.0142029335858 L285.5705809492315,523.6936297864115 M283.4819266857202,527.3012688786634 L281.4106792128209,526.0986219994411 M281.45249402215956,548.4201223535462 L281.4106792128209,526.0986219994411 M148.1684573254574,603.130851698779 L103.27140417606188,629.0874896325962 M139.36548796654608,626.6170541554222 L148.1684573254574,603.130851698779 M143.0334793558223,626.8223257908029 L139.36548796654608,626.6170541554222 M143.0334793558223,626.8223257908029 L152.9501267641615,600.3663927057435 M281.4106792128209,526.0986219994411 L152.9501267641615,600.3663927057435 M150.23966612501866,604.3399463592738 L148.1684573254574,603.130851698779 M141.4360315775068,627.8269599006751 L139.36548796654608,626.6170541554222 M145.10394078704584,628.0321023177406 L143.0334793558223,626.8223257908029 M155.02133746739005,601.5752556762047 L152.9501267641615,600.3663927057435" stroke="black"  stroke-width="4"  fill="red"/>
<path d="M668.1479223580807,241.5205209684051 L626.02067309731,265.8238065604236 M625.3183549821056,261.47653287416836 L626.02067309731,265.8238065604236 M668.1710549509296,236.75885365182657 L625.3183549821056,261.47653287416836 M668.1479223580807,241.5205209684051 L668.1710549509296,236.75885365182657 M723.320289230639,272.9933217370668 L668.1479223580807,241.5205209684051 M681.1935790045275,297.3503540237565 L723.320289230639,272.9933217370668 M681.1935790045275,297.3503540237565 L626.02067309731,265.8238065604236 M681.1935790045275,297.3503540237565 L680.4958665383331,293.0013489476699 M680.4958665383331,293.0013489476699 L625.3183549821056,261.47653287416836 M723.3480187910448,268.22900166576255 L668.1710549509296,236.75885365182657 M680.4958665383331,293.0013489476699 L723.3480187910448,268.22900166576255 M723.320289230639,272.9933217370668 L723.3480187910448,268.22900166576255" stroke="black"  stroke-width="4"  fill="red"/>
<path d="M621.8630896677419,268.22232389147393 L497.2628229945821,340.10444102318377 M497.2718433089309,335.33448356058875 L497.2628229945821,340.10444102318377 M621.1603073061717,263.8749182435782 L497.2718433089309,335.33448356058875 M621.1603073061717,263.8749182435782 L621.8630896677419,268.22232389147393 M552.4368842521903,371.79554460182953 L497.2628229945821,340.10444102318377 M677.0360444685539,299.75417816246113 L621.8630896677419,268.22232389147393 M552.4368842521903,371.79554460182953 L677.0360444685539,299.75417816246113 M552.4368842521903,371.79554460182953 L552.450501955718,367.0229341547057 M552.450501955718,367.0229341547057 L497.2718433089309,335.33448356058875 M676.3378676352606,295.4050413507318 L621.1603073061717,263.8749182435782 M552.450501955718,367.0229341547057 L676.3378676352606,295.4050413507318 M677.0360444685539,299.75417816246113 L676.3378676352606,295.4050413507318" stroke="black"  stroke-width="4"  fill="red"/>
<path d="M493.14704766524693,342.4788391862881 L365.2180488881733,416.2813078339483 M365.21609744956197,411.50498315556547 L365.2180488881733,416.2813078339483 M493.1557268775429,337.70868275146535 L365.21609744956197,411.50498315556547 M493.1557268775429,337.70868275146535 L493.14704766524693,342.4788391862881 M420.3925246867934,448.1416136859549 L365.2180488881733,416.2813078339483 M548.3211336213365,374.1752099130205 L493.14704766524693,342.4788391862881 M420.3925246867934,448.1416136859549 L548.3211336213365,374.1752099130205 M420.3925246867934,448.1416136859549 L420.395170740814,443.3626359739039 M420.395170740814,443.3626359739039 L365.21609744956197,411.50498315556547 M548.3344102289693,369.4024004904427 L493.1557268775429,337.70868275146535 M420.395170740814,443.3626359739039 L548.3344102289693,369.4024004904427 M548.3211336213365,374.1752099130205 L548.3344102289693,369.4024004904427" stroke="black"  stroke-width="4"  fill="red"/>
<path d="M361.0803102891458,418.6683766466972 L232.46772287603915,492.86520880349923 M232.45468214390868,488.08251687028144 L232.46772287603915,492.86520880349923 M361.07801409662414,413.8918529907833 L232.45468214390868,488.08251687028144 M361.07801409662414,413.8918529907833 L361.0803102891458,418.6683766466972 M287.6418291495759,524.8960756395577 L232.46772287603915,492.86520880349923 M416.254786473567,450.53399188763456 L361.0803102891458,418.6683766466972 M287.6418291495759,524.8960756395577 L416.254786473567,450.53399188763456 M287.6418291495759,524.8960756395577 L287.63338581754397,520.110730736799 M287.63338581754397,520.110730736799 L232.45468214390868,488.08251687028144 M416.2570877737739,445.75481519832954 L361.07801409662414,413.8918529907833 M287.63338581754397,520.110730736799 L416.2570877737739,445.75481519832954 M416.254786473567,450.53399188763456 L416.2570877737739,445.75481519832954" stroke="black"  stroke-width="4"  fill="red"/>
<path d="M228.30784473112962,495.26504995994225 L99.84838757096708,569.3735409994061 M102.14226253829725,563.2474560419566 L99.84838757096708,569.3735409994061 M228.2944555491806,490.48215905235065 L102.14226253829725,563.2474560419566 M228.2944555491806,490.48215905235065 L228.30784473112962,495.26504995994225 M155.02133746739005,601.5752556762047 L99.84838757096708,569.3735409994061 M283.4819266857202,527.3012688786634 L228.30784473112962,495.26504995994225 M155.02133746739005,601.5752556762047 L283.4819266857202,527.3012688786634 M155.02133746739005,601.5752556762047 L157.31983651771122,595.4435280197902 M157.31983651771122,595.4435280197902 L102.14226253829725,563.2474560419566 M283.47313489777423,522.5157250053866 L228.2944555491806,490.48215905235065 M157.31983651771122,595.4435280197902 L283.47313489777423,522.5157250053866 M283.4819266857202,527.3012688786634 L283.47313489777423,522.5157250053866" stroke="black"  stroke-width="4"  fill="red"/>
<path d="M95.06677261812342,572.1320632345202 L50.1702790758369,598.0329308151261 M50.1702790758369,598.0329308151261 L50.14191387466235,593.2415506649966 M97.36066746943658,566.0055070671946 L50.14191387466235,593.2415506649966 M97.36066746943658,566.0055070671946 L95.06677261812342,572.1320632345202 M105.3425932284024,630.2987608086139 L150.23966612501866,604.3399463592738 M50.1702790758369,598.0329308151261 L105.3425932284024,630.2987608086139 M150.23966612501866,604.3399463592738 L95.06677261812342,572.1320632345202 M105.3425932284024,630.2987608086139 L105.31882497720994,625.5047279636098 M50.14191387466235,593.2415506649966 L105.31882497720994,625.5047279636098 M105.31882497720994,625.5047279636098 L152.53818554608944,598.2077466697971 M152.53818554608944,598.2077466697971 L97.36066746943658,566.0055070671946 M150.23966612501866,604.3399463592738 L152.53818554608944,598.2077466697971" stroke="black"  stroke-width="4"  fill="red"/>
<path d="M668.0169099539578,268.4884223554175 L668.0400208643866,263.73121819923347 M50.30258718502347,620.3820918225223 L668.0400208643866,263.73121819923347 M50.330925466732026,625.1689248025457 L50.30258718502347,620.3820918225223 M668.0169099539578,268.4884223554175 L50.330925466732026,625.1689248025457 M105.47720469699794,657.4497613822882 L105.4534590278347,652.6602833103187 M50.330925466732026,625.1689248025457 L105.47720469699794,657.4497613822882 M50.30258718502347,620.3820918225223 L105.4534590278347,652.6602833103187 M723.1909453452718,295.2163811774378 L105.4534590278347,652.6602833103187 M723.1632418047643,299.9762306721073 L723.1909453452718,295.2163811774378 M105.47720469699794,657.4497613822882 L723.1632418047643,299.9762306721073 M723.1632418047643,299.9762306721073 L668.0169099539578,268.4884223554175 M723.1909453452718,295.2163811774378 L668.0400208643866,263.73121819923347" stroke="black"  stroke-width="4"  fill="red"/>
<path d="M680.2216823747408,319.5989335085872 L625.0697440956756,288.0591918871147 M625.0697440956756,288.0591918871147 L629.103372074987,284.9059085307366 M684.2560600272568,316.4400448252208 L629.103372074987,284.9059085307366 M684.2560600272568,316.4400448252208 L680.2216823747408,319.5989335085872 M680.2216823747408,319.5989335085872 L670.6533629149408,259.9938286262969 M670.6533629149408,259.9938286262969 L748.2493007255703,304.28452225690774 M748.2493007255703,304.28452225690774 L725.3976331857095,245.2605299379212 M725.3976331857095,245.2605299379212 L631.8292038098939,174.69263991527174 M631.8292038098939,174.69263991527174 L544.7059551455382,142.29036570002324 M544.7059551455382,142.29036570002324 L538.2535255779599,184.42182321351277 M538.2535255779599,184.42182321351277 L615.4383095173312,228.47783587163022 M615.4383095173312,228.47783587163022 L625.0697440956756,288.0591918871147 M619.6392411270356,226.32255067098947 L629.103372074987,284.9059085307366 M619.6392411270356,226.32255067098947 L615.4383095173312,228.47783587163022 M684.2560600272568,316.4400448252208 L674.8539903991066,257.8333313962281 M674.8539903991066,257.8333313962281 L751.9248217478666,301.81726864052985 M751.9248217478666,301.81726864052985 L728.9451814896574,243.40845838761717 M728.9451814896574,243.40845838761717 L636.1898599108401,173.48388710794023 M636.1898599108401,173.48388710794023 L549.8084848252838,141.33830309386673 M549.8084848252838,141.33830309386673 L542.9751401840954,182.57073243113922 M542.9751401840954,182.57073243113922 L619.6392411270356,226.32255067098947 M674.8539903991066,257.8333313962281 L670.6533629149408,259.9938286262969 M748.2493007255703,304.28452225690774 L751.9248217478666,301.81726864052985 M725.3976331857095,245.2605299379212 L728.9451814896574,243.40845838761717 M631.8292038098939,174.69263991527174 L636.1898599108401,173.48388710794023 M544.7059551455382,142.29036570002324 L549.8084848252838,141.33830309386673 M538.2535255779599,184.42182321351277 L542.9751401840954,182.57073243113922" stroke="black"  stroke-width="4"  fill="red"/>
<path d="M141.4360315775068,627.8269599006751 L86.28084889717218,595.5974661328826 M86.28084889717218,595.5974661328826 L89.95094046371582,595.8060467268728 M145.10394078704584,628.0321023177406 L89.95094046371582,595.8060467268728 M145.10394078704584,628.0321023177406 L141.4360315775068,627.8269599006751 M141.4360315775068,627.8269599006751 L161.39991570118556,574.5657394710598 M161.39991570118556,574.5657394710598 L192.58602989360617,592.7481413643369 M192.58602989360617,592.7481413643369 L202.253517339705,559.0689923914236 M202.253517339705,559.0689923914236 L213.07000259509246,517.7045175767792 M213.07000259509246,517.7045175767792 L194.05288018396823,485.1150708255702 M194.05288018396823,485.1150708255702 L173.75885658102584,451.76761036461374 M173.75885658102584,451.76761036461374 L140.2285043459501,453.85106687003656 M140.2285043459501,453.85106687003656 L108.04948583867088,456.65912552695744 M108.04948583867088,456.65912552695744 L89.5975627780802,493.4768298485998 M89.5975627780802,493.4768298485998 L75.12723510722014,524.2662843580833 M75.12723510722014,524.2662843580833 L106.20456634993121,542.3852626616645 M106.20456634993121,542.3852626616645 L86.28084889717218,595.5974661328826 M111.32193754511559,538.7319045076451 L89.95094046371582,595.8060467268728 M111.32193754511559,538.7319045076451 L106.20456634993121,542.3852626616645 M145.10394078704584,628.0321023177406 L166.51801824982914,570.9053902679358 M166.51801824982914,570.9053902679358 L200.35690730642239,590.6298888429476 M200.35690730642239,590.6298888429476 L209.82357384620832,556.6260764868939 M209.82357384620832,556.6260764868939 L220.67432766101697,514.3072629604961 M220.67432766101697,514.3072629604961 L200.71862249919116,480.83196917430814 M200.71862249919116,480.83196917430814 L179.44763688785432,446.59305931010243 M179.44763688785432,446.59305931010243 L144.7398722279944,448.325847805813 M144.7398722279944,448.325847805813 L111.41677555229728,450.81626042894953 M111.41677555229728,450.81626042894953 L92.40183592502399,488.2753515941065 M92.40183592502399,488.2753515941065 L77.60468510333317,519.0783072329536 M77.60468510333317,519.0783072329536 L111.32193754511559,538.7319045076451 M166.51801824982914,570.9053902679358 L161.39991570118556,574.5657394710598 M192.58602989360617,592.7481413643369 L200.35690730642239,590.6298888429476 M213.07000259509246,517.7045175767792 L220.67432766101697,514.3072629604961 M173.75885658102584,451.76761036461374 L179.44763688785432,446.59305931010243 M108.04948583867088,456.65912552695744 L111.41677555229728,450.81626042894953 M75.12723510722014,524.2662843580833 L77.60468510333317,519.0783072329536" stroke="black"  stroke-width="4"  fill="red"/>
<path d="M548.2592052989457,396.4378306669416 L493.1065637289611,364.7290967666431 M497.2207479959314,362.35377137261213 L493.1065637289611,364.7290967666431 M552.3733648961461,394.0572381126717 L497.2207479959314,362.35377137261213 M548.2592052989457,396.4378306669416 L552.3733648961461,394.0572381126717 M548.2592052989457,396.4378306669416 L548.461446136833,323.73424527935884 M548.461446136833,323.73424527935884 L639.8472639026986,376.14084340169006 M639.8472639026986,376.14084340169006 L626.6884118722401,297.6556216594053 M626.6884118722401,297.6556216594053 L521.0488642486471,214.8279399360379 M521.0488642486471,214.8279399360379 L415.7531586989249,176.99141793450684 M415.7531586989249,176.99141793450684 L402.3884924907825,239.9664707447654 M402.3884924907825,239.9664707447654 L493.2387729817227,292.0659568071219 M493.2387729817227,292.0659568071219 L493.1065637289611,364.7290967666431 M497.3578374965191,289.860611923293 L493.2387729817227,292.0659568071219 M497.3578374965191,289.860611923293 L497.2207479959314,362.35377137261213 M552.3733648961461,394.0572381126717 L552.5803249798369,321.523726455455 M552.5803249798369,321.523726455455 L643.6013912986823,373.7127997666447 M643.6013912986823,373.7127997666447 L630.4633830042233,295.621670295374 M630.4633830042233,295.621670295374 L525.1735576699925,213.01703544306793 M525.1735576699925,213.01703544306793 L420.2214744928165,175.37175547669966 M420.2214744928165,175.37175547669966 L406.86880716890084,237.97659398525272 M406.86880716890084,237.97659398525272 L497.3578374965191,289.860611923293 M552.5803249798369,321.523726455455 L548.461446136833,323.73424527935884 M639.8472639026986,376.14084340169006 L643.6013912986823,373.7127997666447 M626.6884118722401,297.6556216594053 L630.4633830042233,295.621670295374 M521.0488642486471,214.8279399360379 L525.1735576699925,213.01703544306793 M415.7531586989249,176.99141793450684 L420.2214744928165,175.37175547669966 M402.3884924907825,239.9664707447654 L406.86880716890084,237.97659398525272" stroke="black"  stroke-width="4"  fill="red"/>
<path d="M416.24405214398524,472.8262845483537 L361.09102079973513,440.9483060140464 M365.22715130643076,438.56030995260215 L361.09102079973513,440.9483060140464 M420.3801822653306,470.4329791021901 L365.22715130643076,438.56030995260215 M416.24405214398524,472.8262845483537 L420.3801822653306,470.4329791021901 M416.24405214398524,472.8262845483537 L416.2793534752083,399.5149891437546 M416.2793534752083,399.5149891437546 L511.66284264007066,454.50506970069824 M511.66284264007066,454.50506970069824 L495.3252312430005,369.8468694201737 M495.3252312430005,369.8468694201737 L388.65222469192014,285.62756676770357 M388.65222469192014,285.62756676770357 L282.4354908607839,247.4344095929447 M282.4354908607839,247.4344095929447 L266.24794674690867,313.0195252611016 M266.24794674690867,313.0195252611016 L361.0557978353789,367.67774142023796 M361.0557978353789,367.67774142023796 L361.09102079973513,440.9483060140464 M365.1971491741499,365.1273441467701 L361.0557978353789,367.67774142023796 M365.1971491741499,365.1273441467701 L365.22715130643076,438.56030995260215 M420.3801822653306,470.4329791021901 L420.42086368844025,396.9591902740964 M420.42086368844025,396.9591902740964 L515.9668457283162,452.0334464179958 M515.9668457283162,452.0334464179958 L499.78274642332536,367.3539263237001 M499.78274642332536,367.3539263237001 L392.8007282530915,283.03529673089 M392.8007282530915,283.03529673089 L286.2743079323138,244.6073996744751 M286.2743079323138,244.6073996744751 L270.22835693358445,310.3857895793493 M270.22835693358445,310.3857895793493 L365.1971491741499,365.1273441467701 M420.42086368844025,396.9591902740964 L416.2793534752083,399.5149891437546 M511.66284264007066,454.50506970069824 L515.9668457283162,452.0334464179958 M495.3252312430005,369.8468694201737 L499.78274642332536,367.3539263237001 M388.65222469192014,285.62756676770357 L392.8007282530915,283.03529673089 M282.4354908607839,247.4344095929447 L286.2743079323138,244.6073996744751 M266.24794674690867,313.0195252611016 L270.22835693358445,310.3857895793493" stroke="black"  stroke-width="4"  fill="red"/>
<path d="M283.52293560316923,549.623232835549 L228.37029802846578,517.5746510330805 M232.52855084570064,515.1738826496913 L228.37029802846578,517.5746510330805 M287.68121271093145,547.2171123904242 L232.52855084570064,515.1738826496913 M283.52293560316923,549.623232835549 L287.68121271093145,547.2171123904242 M283.52293560316923,549.623232835549 L283.40920373114983,487.71672796068674 M283.40920373114983,487.71672796068674 L360.35891843442795,532.3353309656281 M360.35891843442795,532.3353309656281 L339.3817926840127,455.88604714854534 M339.3817926840127,455.88604714854534 L255.57824254568072,381.3385998511001 M255.57824254568072,381.3385998511001 L172.17792985556488,359.1510252420589 M172.17792985556488,359.1510252420589 L151.65628500783416,411.3209778539291 M151.65628500783416,411.3209778539291 L228.19709362820834,455.7024803283519 M228.19709362820834,455.7024803283519 L228.37029802846578,517.5746510330805 M232.35849032438773,452.8041418019315 L228.19709362820834,455.7024803283519 M232.35849032438773,452.8041418019315 L232.52855084570064,515.1738826496913 M287.68121271093145,547.2171123904242 L287.571105563961,484.8127591661446 M287.571105563961,484.8127591661446 L365.53068366493073,530.0085589753317 M365.53068366493073,530.0085589753317 L344.63550315696267,453.1066878945162 M344.63550315696267,453.1066878945162 L259.74544485607174,377.98287293135786 M259.74544485607174,377.98287293135786 L175.26197925337442,355.13628029348956 M175.26197925337442,355.13628029348956 L154.81629987155992,407.8503157058887 M154.81629987155992,407.8503157058887 L232.35849032438773,452.8041418019315 M287.571105563961,484.8127591661446 L283.40920373114983,487.71672796068674 M360.35891843442795,532.3353309656281 L365.53068366493073,530.0085589753317 M339.3817926840127,455.88604714854534 L344.63550315696267,453.1066878945162 M255.57824254568072,381.3385998511001 L259.74544485607174,377.98287293135786 M172.17792985556488,359.1510252420589 L175.26197925337442,355.13628029348956 M151.65628500783416,411.3209778539291 L154.81629987155992,407.8503157058887" stroke="black"  stroke-width="4"  fill="red"/></svg>